<svg xmlns="http://www.w3.org/2000/svg"  viewBox="0 0 48 48" width="48px" height="48px"><path fill="#6c19ff" d="M43,43H5l1.624-6.287C7.416,31.696,11.741,28,16.821,28h14.357c5.08,0,9.405,3.696,10.197,8.713 L43,43z"/><path fill="#2100c4" d="M20.904,32.356L18,28h12l-2.904,4.356C25.623,34.565,22.377,34.565,20.904,32.356z"/><path fill="#ddbaff" d="M24,30L24,30c-5.135,0-9.46-3.837-10.072-8.936l-0.498-4.15C12.669,10.577,17.617,5,24,5h0 c6.383,0,11.331,5.577,10.57,11.915l-0.498,4.15C33.46,26.163,29.135,30,24,30z"/><path fill="#ddbaff" d="M34,22H14c-1.104,0-2-0.896-2-2s0.896-2,2-2h20c1.104,0,2,0.896,2,2S35.104,22,34,22z"/><path fill="#6c19ff" d="M13.43,16.914l0.136,1.136c2.349-1.623,3.891-4.33,3.891-7.401c0-1.044-0.187-2.042-0.515-2.974 C14.433,9.901,12.994,13.283,13.43,16.914z"/><path fill="#6c19ff" d="M31.058,7.675c-0.327,0.932-0.515,1.93-0.515,2.974c0,3.072,1.542,5.778,3.891,7.401l0.136-1.135 C35.006,13.283,33.567,9.901,31.058,7.675z"/><path fill="#6c19ff" d="M33.991,12C32.512,7.954,28.641,5,24,5s-8.512,2.954-9.991,7H33.991z"/></svg>