<svg xmlns="http://www.w3.org/2000/svg"  viewBox="0 0 48 48" width="48px" height="48px"><path fill="#6c19ff" d="M24.333,15.02l-1.674-3.349C22.645,11.646,21,8.5,18,8.5v-3c2.582,0,4.461,1.301,5.672,2.554	C24.897,5.851,27.213,3,31,3v3c-3.848,0-5.55,5.387-5.566,5.441L24.333,15.02z"/><ellipse cx="24" cy="26.5" fill="#fa91ad" rx="18" ry="16.5"/><path fill="#fa91ad" d="M41.5,32h-35C4.567,32,3,30.433,3,28.5v0C3,26.567,4.567,25,6.5,25h35c1.933,0,3.5,1.567,3.5,3.5v0	C45,30.433,43.433,32,41.5,32z"/><path fill="#2100c4" d="M19,33c0,2,2,4,5,4s5-2,5-4H19z"/><circle cx="17.5" cy="26.5" r="2.5" fill="#2100c4"/><circle cx="30.5" cy="26.5" r="2.5" fill="#2100c4"/></svg>