<svg xmlns="http://www.w3.org/2000/svg"  viewBox="0 0 48 48" width="48px" height="48px"><path fill="#2100c4" d="M35,41l-1-14H14l-1,14l-7,6h36L35,41z"/><path fill="#6c19ff" d="M36,17c0,0-0.3-9-12-9s-12,9-12,9c0,6.6,2.8,22,2.8,22l6.7,4.5c0.3,0.2,0.7,0.4,1.2,0.4h2.7 c0.4,0,0.8-0.1,1.2-0.4L33,39C33,39,36,23.6,36,17z"/><path fill="#fff" d="M26,25l7-2c0,0-2,3-4,3S26,25,26,25z M22,25l-7-2c0,0,2,3,4,3S22,25,22,25z"/><path fill="#6c19ff" d="M12,17c0-7,2-16,2-16l3,11L12,17z M36,17c0-7-2-16-2-16l-3,11L36,17z"/><path fill="#f5bc00" d="M16,30l8,3l8-3l-2,11.096L26,44h-4l-4-2.999L16,30z"/><path fill="#eb7900" d="M20.4,37.7l-0.9-1.8c0.1,0,1.8-0.9,4.4-0.9s4.4,0.9,4.4,0.9l-0.9,1.8c0,0-1.4-0.7-3.6-0.7 C21.9,37,20.5,37.7,20.4,37.7z"/><path fill="#2100c4" d="M31.588,9.846L31,12l5,5C36,17,35.844,12.479,31.588,9.846z"/><path fill="#2100c4" d="M16.412,9.846C12.156,12.479,12,17,12,17l5-5L16.412,9.846z"/></svg>