<svg xmlns="http://www.w3.org/2000/svg"  viewBox="0 0 48 48" width="48px" height="48px"><rect width="3" height="8" x="24" y="35" fill="#f55376"/><rect width="3" height="8" x="17" y="35" fill="#f55376"/><polygon fill="#f5bc00" points="41,15 46,10 38,10"/><polygon fill="#f5bc00" points="41,13 46,18 38,18"/><circle cx="34.5" cy="13.5" r="7.5" fill="#6c19ff"/><path fill="#6c19ff" d="M12.32,38h7.903C28.937,38,36,30.937,36,22.223V15h-7.903c-8.713,0-15.777,7.063-15.777,15.777V38z"/><path fill="#6c19ff" d="M11.121,41.121l6.243-6.243l-4.243-4.243L2.636,41.121l0,0C4.979,43.464,8.778,43.464,11.121,41.121z"/><path fill="#6c19ff" d="M8,31.429h6.068c7.385,0,13.372-5.987,13.372-13.372V15h-6.068C13.987,15,8,20.987,8,28.372V31.429z"/><path fill="#2100c4" d="M27.44,16.783v-1.666c-8.231,0.937-14.669,7.818-15.078,16.312h0.636	C20.974,31.429,27.44,24.871,27.44,16.783z"/><circle cx="35.5" cy="13.5" r="1.5" fill="#2100c4"/></svg>