<svg xmlns="http://www.w3.org/2000/svg"  viewBox="0 0 48 48" width="48px" height="48px" baseProfile="basic"><path fill="#00b569" d="M16.859,24.664c0.603,1.004,3.335-1.292,3.561-0.093c1.622,8.622-2.694,17.762-10.141,20.751	c-0.975,0.391-2.002,0.557-3.005,0.693L16.859,24.664z"/><path fill="#3ddab4" d="M15.383,28.004c2.836,0.047,10.867-0.129,14.372-6.005c4.323-7.248,2.277-14.628-6.098-17.128	L15.383,28.004z"/><path fill="#f5bc00" d="M7.103,27.827c6.647,0.798,13.721-1.09,17.406-5.845c1.546-1.994,2.659-4.276,2.792-6.74	c0.245-4.549-4.856-6.502-7.1-3.606L7.103,27.827z"/><path fill="#eb7900" d="M24.51,21.982c1.546-1.995,2.659-4.276,2.792-6.74c0.201-3.724-3.179-5.703-5.644-4.712	l-6.017,16.818C19.15,26.449,22.451,24.639,24.51,21.982z"/><path fill="#eb7900" d="M29.753,5.665C29.63,6.872,30.51,7.95,31.717,8.073c1.207,0.122,2.285-0.757,2.408-1.964	L29.753,5.665z"/><path fill="#f5bc00" d="M31.917,6.29C33.017,6,34.133,6.294,34.94,6.977c0.086-0.423,0.083-0.871-0.035-1.316	c-0.408-1.548-1.993-2.472-3.541-2.064c-1.548,0.408-2.472,1.993-2.064,3.541c0.092,0.351,0.248,0.668,0.448,0.947	C30.159,7.229,30.927,6.551,31.917,6.29z"/><polygon fill="none" points="24,19.001 24,19 24,19.001"/><path fill="#eb7900" d="M24.018,19H24c0,0,0,0.001,0,0.001C24.006,19.001,24.012,19,24.018,19z"/><circle cx="28.066" cy="5.559" r="4.566" fill="#fadb00"/><path fill="#f5bc00" d="M29,28h-5v-2.996h2.028c1.642,0,2.972,1.331,2.972,2.972V28z"/><circle cx="29" cy="5" r="1" fill="#eb7900"/><path fill="#eb7900" d="M22,15c0,0.828,0.672,1.5,1.5,1.5S25,15.828,25,15H22z"/><path fill="#eb7900" d="M20,18c0,0.828,0.672,1.5,1.5,1.5S23,18.828,23,18H20z"/><path fill="#eb7900" d="M22.625,14.75c0,0.828,0.672,1.5,1.5,1.5s1.5-0.672,1.5-1.5H22.625z"/><path fill="#eb7900" d="M20.375,18.25c0,0.828,0.672,1.5,1.5,1.5s1.5-0.672,1.5-1.5H20.375z"/></svg>