<svg xmlns="http://www.w3.org/2000/svg"  viewBox="0 0 48 48" width="48px" height="48px"><rect width="6" height="4" x="21" y="22" fill="#f55376"/><circle cx="36.5" cy="19.5" r="11.5" fill="#f55376"/><path fill="#f55376" d="M31.5,25c4.638,0,8.292,4.209,7.351,9.016c-0.571,2.916-2.922,5.269-5.846,5.837 C28.203,40.787,24,37.134,24,32.5V25H31.5z"/><path fill="#eb0000" d="M38.791,30.77C38.05,30.92,37.285,31,36.5,31c-4.359,0-8.15-2.426-10.101-6H31.5 C35.046,25,38.009,27.464,38.791,30.77z"/><circle cx="11.5" cy="19.5" r="11.5" fill="#f55376"/><path fill="#f55376" d="M16.5,25c-4.638,0-8.292,4.209-7.351,9.016c0.571,2.916,2.922,5.269,5.846,5.837 C19.797,40.787,24,37.134,24,32.5V25H16.5z"/><path fill="#eb0000" d="M9.209,30.77C9.95,30.92,10.715,31,11.5,31c4.359,0,8.15-2.426,10.101-6H16.5 C12.954,25,9.991,27.464,9.209,30.77z"/><rect width="4" height="27" x="22" y="11" fill="#f5bc00"/><polygon fill="#f5bc00" points="24,13.887 18.187,5.748 19.813,4.585 24,10.446 28.187,4.585 29.813,5.748"/></svg>