<svg xmlns="http://www.w3.org/2000/svg"  viewBox="0 0 48 48" width="48px" height="48px"><rect width="4" height="24" x="5" y="12" fill="#eb7900"/><path fill="#f5bc00" d="M24.245,43H11.064C7.715,43,5,40.285,5,36.936v0C5,25.373,14.373,16,25.936,16H38v13.245 C38,36.842,31.842,43,24.245,43z"/><polygon fill="#fadb00" points="24,15 24,5 32.313,11.611"/><polygon fill="#fadb00" points="43,16 43,5 34.688,11.611"/><path fill="#f5bc00" d="M43,42.472V43H26v-5h12.528C40.998,38,43,40.002,43,42.472z"/><path fill="#eb7900" d="M33,42.472V43H16v-5h12.528C30.998,38,33,40.002,33,42.472z"/><circle cx="33.5" cy="15.5" r="9.5" fill="#fadb00"/><path fill="#eb7900" d="M32,17h-1.165C29.822,17,29,16.178,29,15.165V14h1.165C31.178,14,32,14.822,32,15.835V17z"/><path fill="#eb7900" d="M36,17h1.165C38.178,17,39,16.178,39,15.165V14h-1.165C36.822,14,36,14.822,36,15.835V17z"/><path fill="#f5bc00" d="M21.743,43C23.15,41.343,24,39.197,24,36.853c0-5.247-4.253-9.5-9.5-9.5S5,31.606,5,36.853 c0,2.344,0.85,4.49,2.257,6.147H21.743z"/><path fill="#eb7900" d="M23,38.321c0,1.675-0.507,3.306-1.44,4.679h4.516C26.681,41.526,27,39.937,27,38.321 C27,31.527,21.473,26,14.679,26v4C19.267,30,23,33.733,23,38.321z"/></svg>