<svg xmlns="http://www.w3.org/2000/svg"  viewBox="0 0 48 48" width="48px" height="48px"><ellipse cx="24" cy="31.5" fill="#eb0000" rx="2" ry="6.1"/><path fill="#3ddab4" d="M31.9,14.3c4,2.1,8.6,2.1,12.9,0.6c-1.2-4.4-3.9-8.1-7.9-10.2c-4-2.1-8.6-2.1-12.9-0.6c0,0,0,0,0,0L12.3,29.3	l3.6,1.7L24,13.6L32.1,31l3.6-1.7L26.6,9.6C27.9,11.6,29.7,13.2,31.9,14.3z"/><path fill="#f55376" d="M24,25.4c-1.9-2.6-5-4.4-8.5-4.4C9.7,21,5,25.7,5,31.5S9.7,42,15.5,42c3.5,0,6.6-1.7,8.5-4.4 c-1.3-1.7-2-3.8-2-6.1S22.7,27.1,24,25.4z"/><path fill="#f55376" d="M32.5,21c-3.5,0-6.6,1.7-8.5,4.4c1.3,1.7,2,3.8,2,6.1s-0.7,4.4-2,6.1c1.9,2.6,5,4.4,8.5,4.4 C38.3,42,43,37.3,43,31.5S38.3,21,32.5,21z"/></svg>