<svg xmlns="http://www.w3.org/2000/svg"  viewBox="0 0 48 48" width="48px" height="48px" baseProfile="basic"><path fill="#3ddab4" d="M37.688,10.18L36.692,7.75C35.427,4.66,32,3.227,28.688,4.547L23.383,6.69	c-1.278-0.743-2.866-0.922-4.34-0.319c-2.265,0.928-3.452,3.346-2.923,5.656c-2.509,4.865-3.656,11.39-3.363,18.035l13.586,0.289	c-0.113-0.246-0.226-0.526-0.34-0.818l0.969,0.888V19.975h6.156c2.075,0.008,3.903-1.9,3.91-3.975H24.008L37.688,10.18z"/><circle cx="32.01" cy="7.018" r="1" fill="#00b569"/><circle cx="20.488" cy="10.504" r="1.5" fill="#fadb00"/><path fill="#f5bc00" d="M37.913,30.262l-5.383-5.274l-5.235,5.274l-5.235-5.274l-5.383,5.274l-5.235-5.274l-5.369,5.261	C6.802,37.526,12,44.935,22,45c9.477,0.061,15.198-7.474,15.928-14.752L37.913,30.262z"/><path fill="#f5bc00" d="M44.063,37.038l-3.783-3.032l-4.6,3.041l-4.167-3.023l-4.176,3.007	c0.383,3.966,3.137,7.961,8.391,7.997c4.978,0.033,7.961-4.031,8.344-7.997L44.063,37.038z"/><path fill="#eb7900" d="M35.703,37l-4.156-2.994l-4.176,3.06c0.205,2.116,1.11,4.279,2.678,5.817	C32.415,41.417,34.391,39.349,35.703,37z"/><polygon fill="#eb7900" points="16.677,33.205 22.06,27.931 26.984,32.892 26.984,29.949 22.06,24.988 16.677,30.262 12.781,26.338 12.781,29.281"/></svg>