<svg xmlns="http://www.w3.org/2000/svg"  viewBox="0 0 48 48" width="48px" height="48px"><path fill="#f55376" d="M17,10c0,0,6-4,14-3c0,5,0,11,0,11H21L17,10z"/><polygon fill="#f55376" points="13,23.858 1,13.716 1,34"/><path fill="#3dd9eb" d="M27.915,12c-8.794,0-16.57,5.248-19.586,12c3.144,6.652,10.576,12,19.085,12	c8.794,0,16.57-5.248,19.586-12C43.856,17.348,36.424,12,27.915,12z"/><path fill="#00b3d7" d="M9.897,21.236C9.289,22.121,8.756,23.043,8.329,24c0.416,0.881,0.913,1.736,1.472,2.562L13,23.858	L9.897,21.236z"/><path fill="#7debf5" d="M37,14.147c-2.586,6.336-2.719,12.875,0,19.649c4.532-2.148,8.16-5.678,10-9.796	C45.057,19.89,41.46,16.306,37,14.147z"/><circle cx="39.5" cy="22.5" r="1.5" fill="#2100c4"/><path fill="#f55376" d="M21,31v11c4,0,10-3,10-11C26.556,31,21,31,21,31z"/><path fill="#00b3d7" d="M21,34.961C23.026,35.624,25.181,36,27.414,36c0.91,0,1.805-0.069,2.689-0.177	C30.66,34.47,31,32.878,31,31c-4.444,0-10,0-10,0V34.961z"/><path fill="#00b3d7" d="M31,17c0-1.038,0-2.783,0-4.763C29.992,12.083,28.962,12,27.915,12c-3.183,0-6.229,0.695-8.968,1.893	L20.5,17H31z"/></svg>