<svg xmlns="http://www.w3.org/2000/svg"  viewBox="0 0 48 48" width="48px" height="48px"><circle cx="27" cy="11" r="8" fill="#f55376"/><path fill="#3dd9eb" d="M35,11c-5.181-2.574-8.166,0.852-9.777,7.814c9.862,2.441,13.245,5.952,11.733,19.87	c-0.044,0.403,0.161,0.795,0.448,1.082c0.753,0.753,2.025,0.526,2.471-0.441C49,27,47.644,16.831,35,11z"/><path fill="#f55376" d="M21.486,29.641C15.756,25.978,12,23.327,12,20c0-1.714,0.778-2.922,2.314-3.59	c1.113-0.485,2.397-0.59,3.914-0.261c1.537,0.32,3.351,1.103,5.175,2.043l0.349-10.991c-1.031-0.312-2.027-0.573-2.966-0.786	l0.015,0.021c-3.484-0.871-7.156-0.642-10.478,0.804C5.112,9.508,2,14.278,2,20c0,9.052,7.818,14.05,14.1,18.066	c3.515,2.247,7.305,4.38,7.89,7.024l10-0.011C33.981,37.629,27.343,33.386,21.486,29.641z"/><path fill="#00b3d7" d="M23.019,17.933C24.192,18.608,25.549,19,27,19c3.917,0,8-4,8-8C26,5,17,11,23.019,17.933z"/><circle cx="27" cy="13" r="2" fill="#6c19ff"/><path fill="#00b3d7" d="M37.172,30.319c0.225,2.274,0.148,5.016-0.216,8.365c-0.044,0.403,0.161,0.795,0.448,1.082	c0.753,0.753,2.025,0.526,2.471-0.441c4.074-5.503,6.052-10.574,5.875-15.024C43.643,27.147,40.652,29.292,37.172,30.319z"/></svg>