<svg xmlns="http://www.w3.org/2000/svg"  viewBox="0 0 48 48" width="48px" height="48px"><path fill="#f5bc00" d="M41.576,3.127L24,8L6.424,3.127C4.522,2.537,2.648,4.09,3.057,5.918l3.467,15.494	C7.806,17.683,11.336,15,15.5,15c3.727,0,6.944,2.152,8.5,5.276C25.556,17.152,28.773,15,32.5,15c4.164,0,7.694,2.683,8.977,6.412	l3.467-15.494C45.352,4.09,43.478,2.537,41.576,3.127z"/><path fill="#f5bc00" d="M24,8C14.059,8,5,18.304,5,28.545C11.918,29.577,18.97,34.98,24,39	c5.236-4.276,12.219-9.802,19-10.455C43,18.304,33.941,8,24,8z"/><path fill="#eb7900" d="M6.484,21.236l0.039,0.176C7.806,17.683,11.336,15,15.5,15c3.727,0,6.944,2.152,8.5,5.276	C25.556,17.152,28.773,15,32.5,15c4.164,0,7.694,2.683,8.977,6.412l0.039-0.176C38.553,13.916,31.532,8,24,8	S9.447,13.916,6.484,21.236z"/><path fill="#f5bc00" d="M24,45L24,45c-2.902,0-5.396-1.981-5.944-4.721L14,20h20l-4.056,20.279	C29.396,43.019,26.902,45,24,45z"/><path fill="#eb7900" d="M28,38c0,1.105-1.791,3-4,3s-4-1.895-4-3s1.791-2,4-2S28,36.895,28,38z"/><path fill="#eb7900" d="M15.32,26.837c1.477,0.751,3.283,0.163,4.034-1.314l-5.348-2.72	C13.255,24.28,13.843,26.086,15.32,26.837z"/><path fill="#eb7900" d="M32.714,26.837c-1.477,0.751-3.283,0.163-4.034-1.314l5.348-2.72	C34.779,24.28,34.19,26.086,32.714,26.837z"/></svg>