<svg xmlns="http://www.w3.org/2000/svg"  viewBox="0 0 48 48" width="48px" height="48px" baseProfile="basic"><path fill="#3ddab4" d="M45.125,27.375c0,6.973-9.43,12.625-21.063,12.625S3,34.348,3,27.375s9.368-12.5,21-12.5	S45.125,20.402,45.125,27.375z"/><ellipse cx="14" cy="16" fill="#00b569" rx="7" ry="8"/><ellipse cx="34" cy="16" fill="#00b569" rx="7" ry="8"/><circle cx="21.5" cy="24.5" r="1.5" fill="#00b569"/><circle cx="26.5" cy="24.5" r="1.5" fill="#00b569"/><path fill="#7decd6" d="M24,31.125c-8.834,0-16.51-2.7-20.412-6.668C3.217,25.395,3,26.369,3,27.375	C3,34.348,12.43,40,24.062,40c11.633,0,21.063-5.652,21.063-12.625c0-1.039-0.233-2.044-0.628-3.01	C40.624,28.383,32.901,31.125,24,31.125z"/><ellipse cx="34" cy="16" fill="#c2ffff" rx="4.078" ry="5.046"/><circle cx="34.5" cy="16.375" r="1.5" fill="#00b569"/><ellipse cx="14" cy="16" fill="#c2ffff" rx="4" ry="5"/><circle cx="13.5" cy="16.375" r="1.5" fill="#00b569"/></svg>