<svg xmlns="http://www.w3.org/2000/svg"  viewBox="0 0 48 48" width="48px" height="48px" baseProfile="basic"><path fill="#f5bc00" d="M8.006,31.018h-2l-0.002-3.605c0-2.968,2.415-5.383,5.383-5.383h3.492v2h-3.492	c-1.865,0-3.383,1.518-3.383,3.383L8.006,31.018z"/><rect width="3" height="16.886" x="29.996" y="29.105" fill="#eb7900"/><rect width="2.965" height="12" x="9.992" y="33.992" fill="#f5bc00"/><rect width="3" height="23.373" x="27.014" y="-.119" fill="#eb7900" transform="rotate(35.777 28.512 11.565)"/><linearGradient id="d5ZfYwk2Oo12QM1-UfhTka" x1="36" x2="38" y1="-192.39" y2="-192.39" gradientTransform="matrix(1 0 0 -1 0 -187.89)" gradientUnits="userSpaceOnUse"><stop offset="0" stop-color="#ffcf54"/><stop offset=".261" stop-color="#fdcb4d"/><stop offset=".639" stop-color="#f7c13a"/><stop offset="1" stop-color="#f0b421"/></linearGradient><polygon fill="url(#d5ZfYwk2Oo12QM1-UfhTka)" points="36,2 38,2 38,7"/><path fill="#eb7900" d="M23,30h-6c-0.003,1.103-0.897,2.997-2,3v12.5c0,0.034,0.013,0.064,0.02,0.097v0.395h0.44	C15.474,45.993,15.486,46,15.5,46h1.047c0.015,0,0.028-0.007,0.043-0.008h1.429l0.012-10.148C20.401,35.776,22.427,32.301,23,30z"/><path fill="#f5bc00" d="M13.156,24.953l-1.145,0.053L12,31c-0.003,0.861-0.648,2.184-2,2.85v2.181l2.781,0.75l0.234-0.984	c0.688-0.028,1.382-0.293,2.016-0.563C16.557,34.621,17.65,32.607,18,31C18,31,13.156,22.963,13.156,24.953z"/><polygon fill="#f5bc00" points="28.016,46.031 25.016,46.031 28.391,29.281 31.391,29.281"/><path fill="#f5bc00" d="M44.508,4.75l-4.344-3l-0.008,0.022c-0.59-0.528-1.332-0.771-2.066-0.754	c0-0.002,0.001-0.004,0.001-0.006l-5.106,0.001c0,1.18,0.805,2.163,1.892,2.455C31.893,7.565,23,19.792,23,20h-5.858	c-2.848,0-5.146,2.175-5.146,5.023l0.035,2.813c0,1.75,1.372,3.168,3.122,3.168h15.669c1.75,0,3.169-1.419,3.169-3.169v-4.665	c0-0.757-0.276-1.443-0.719-1.988L38,7l-0.007-0.015C38.05,6.988,38.106,7,38.164,7h5.594c0.69,0,1.25-0.56,1.25-1.25	C45.008,5.117,44.508,4.75,44.508,4.75z"/><path fill="#f5bc00" d="M35.926,2.008c-0.15,0.168-0.273,0.35-0.379,0.539c-0.163,0.224-0.393,0.539-0.671,0.921	c0.108,0.029,0.218,0.049,0.331,0.064c0.109,0.014,0.217,0.033,0.331,0.033c0.306,0,0.595-0.063,0.867-0.161	c0.979-0.356,1.683-1.285,1.685-2.386C37.291,1.037,36.501,1.365,35.926,2.008z"/><path fill="#eb7900" d="M14.879,22.029h-1.876c-0.438,0.58-0.759,1.252-0.907,2h2.782V22.029z"/></svg>