<svg xmlns="http://www.w3.org/2000/svg"  viewBox="0 0 48 48" width="48px" height="48px" baseProfile="basic"><path fill="#a64aff" d="M37.668,25.918c0.186-0.816,0.315-1.657,0.388-2.516c0.047-0.481,0.081-0.961,0.081-1.433	c0-2.747-0.625-5.326-1.716-7.579c-0.005-0.011-0.012-0.021-0.017-0.032c-0.208-0.428-0.432-0.845-0.673-1.248	c-0.061-0.102-0.13-0.197-0.194-0.298c-0.193-0.306-0.387-0.611-0.598-0.901c-0.107-0.147-0.224-0.284-0.336-0.427	c-0.157-0.2-0.306-0.408-0.472-0.599c-0.032-0.036-0.065-0.069-0.097-0.105c-0.057-0.065-0.117-0.126-0.176-0.19	c-0.071-0.076-0.141-0.155-0.212-0.229c-0.003,0.001-0.005,0.003-0.008,0.004C31.116,7.704,27.732,6.063,24,6.063	c-3.729,0-7.103,1.646-9.627,4.304c0.002,0.001,0.004,0.002,0.005,0.003c-0.002-0.001-0.004-0.002-0.005-0.003c0,0,0,0,0,0	c-0.003-0.001-0.006-0.004-0.01-0.005c-0.162,0.17-0.323,0.346-0.484,0.524c-2.475,2.865-4.005,6.771-4.005,11.083	c0,1.333,0.164,2.62,0.439,3.857l-1.213,0.839l0.281,1.547l1.608-0.113c2.131,5.737,7.141,9.777,13.009,9.777	c5.939,0,11.012-4.132,13.101-9.978l0.688,0.314l1.125-1.406L37.668,25.918z"/><path fill="#a64aff" d="M39.426,6.959c1.109,1.91,0.46,4.358-1.45,5.468s-4.358,0.46-5.468-1.45L39.426,6.959z"/><path fill="#a64aff" d="M16.657,11.864c-0.684-0.645-1.473-1.037-2.293-1.502c-0.162,0.17-0.323,0.346-0.484,0.524	c-2.475,2.865-4.005,6.771-4.005,11.083c0,1.384,0.173,2.719,0.468,3.999c1.454-1.054,4.175-3.025,5.368-3.874	C19.209,19.604,19.781,14.808,16.657,11.864z"/><circle cx="15.5" cy="15.5" r="1.5" fill="#2100c4"/><path fill="#6c19ff" d="M11.022,25.996h25.802c1.593,0,3.026,1.282,3.345,2.885l1.752,8.814	c0.478,2.244-1.274,4.327-3.345,4.327H9.43c-2.23,0-3.822-2.083-3.345-4.327l1.752-8.814C7.996,27.278,9.43,25.996,11.022,25.996z"/><rect width="28.031" height="3.938" x="9.969" y="40" fill="#6c19ff"/><rect width="28.031" height="1.992" x="9.969" y="40" fill="#2100c4"/><path fill="#6c19ff" d="M13.88,10.886c0.157-0.182,0.329-0.346,0.494-0.519c-0.003-0.001-0.006-0.004-0.01-0.005 C14.202,10.532,14.04,10.707,13.88,10.886z"/><path fill="#6c19ff" d="M38.914,26.805l-1.246-0.886c0.288-1.265,0.457-2.583,0.457-3.949 c0-8.785-6.324-15.906-14.125-15.906c-3.729,0-7.103,1.646-9.627,4.304c0.775,0.5,1.603,0.855,2.284,1.497 c3.124,2.945,2.552,7.741-0.946,10.23l-6.609,4.57l0.281,1.547l1.608-0.113c2.131,5.737,7.141,9.777,13.009,9.777 c5.939,0,11.012-4.132,13.101-9.978l0.688,0.314L38.914,26.805z"/><path fill="#2100c4" d="M20.086,35.016h-2c-1.1,0-2-0.9-2-2v-2L20.086,35.016z"/><path fill="#2100c4" d="M27.969,35.016h2c1.1,0,2-0.9,2-2v-2L27.969,35.016z"/><path fill="#a64aff" d="M31.355,11.864c0.684-0.645,1.464-1.14,2.293-1.502c0.162,0.17,0.323,0.346,0.484,0.524	c2.475,2.865,4.005,6.771,4.005,11.083c0,1.384-0.229,2.853-0.524,4.133c-1.454-1.054-4.119-3.159-5.312-4.008	C28.803,19.604,28.231,14.808,31.355,11.864z"/><circle cx="32.5" cy="15.5" r="1.5" fill="#2100c4"/><path fill="#a64aff" d="M15.452,11.012c-1.109,1.91-3.557,2.56-5.468,1.45s-2.56-3.557-1.45-5.468L15.452,11.012"/></svg>