<svg xmlns="http://www.w3.org/2000/svg"  viewBox="0 0 48 48" width="48px" height="48px"><path fill="#f5bc00" d="M29.574,9.234L30,4c0,0-16.48,13.181-25.262,28.797l16.825,11.272L28,24c0.015,0,8-1.029,8-6	C36,14.083,33.068,10.471,29.574,9.234z"/><circle cx="42.5" cy="26.5" r="5.5" fill="#f5bc00"/><polygon fill="#f5bc00" points="29.319,8.213 45.84,22.191 39.904,28.798 23,25"/><circle cx="30.5" cy="17.5" r="1.5" fill="#eb7900"/><path fill="#f5bc00" d="M8.282,35.172c5.425-9.87,14.343-19.911,19.058-23.734l-5.206-5.906	C17.248,9.512,7.525,20.272,1.466,30.7L8.282,35.172z"/><path fill="#eb7900" d="M8.282,35.172c5.425-9.87,14.343-19.911,19.058-23.734l-2.587-2.935	C20.088,12.301,10.532,22.832,4.759,32.86L8.282,35.172z"/></svg>