<svg xmlns="http://www.w3.org/2000/svg"  viewBox="0 0 48 48" width="48px" height="48px"><rect width="3" height="9" x="6" y="18" fill="#fa91ad"/><path fill="#f55376" d="M36,27v-9h3L36,7c0,0-4-3-12-3S12,7,12,7L9,18h3v9H9l3,8l2,6c0,0,3,3,10,3s10-3,10-3l2-6l3-8h0.1 H36z"/><rect width="3" height="9" x="9" y="18" fill="#eb0000"/><rect width="3" height="9" x="39" y="18" fill="#fa91ad"/><rect width="3" height="9" x="36" y="18" fill="#eb0000"/><g><path fill="#fadb00" d="M33.293,8.883c-0.895-0.446-2.458-1.078-4.693-1.484L27,13h-6l-1.599-5.595 c-2.225,0.41-3.796,1.044-4.696,1.488L12,18v9c0,0,5,2.952,5,7c0,0,0,0.441,0,1h3l1-2h6l1,2h3v2c0-1.097,0-3,0-3 c0.892-4.867,5-7,5-7v-9L33.293,8.883z"/><path fill="#f5bc00" d="M28,34l-1-1h-6l-1,1h-3c0,0.667,0,2.504,0,3h14v-3H28z"/><path fill="#fadb00" d="M17,40c0,0,0.789,0.705,3,1l2-2h4l2,2c2.211-0.295,3-1,3-1v-3h-4l-1-1h-4l-1,1h-4V40z"/></g><path fill="#00b3d7" d="M27,22c0,0,3-1,6-2v3l-6,2V22z"/><path fill="#00b3d7" d="M21,22c0,0-3-1-6-2v3l6,2V22z"/></svg>