<svg xmlns="http://www.w3.org/2000/svg"  viewBox="0 0 48 48" width="48px" height="48px" baseProfile="basic"><path fill="#00b3d7" d="M15.626,38.726c-0.692-1.581-2.266-2.689-4.103-2.689c-2.475,0-4.481,2.006-4.481,4.481	c0,2.475,2.006,4.481,4.481,4.481h8.067v-6.274H15.626z"/><path fill="#3dd9eb" d="M27.176,20.59L16.492,34.855c-2.84,3.1-3.144,7.631-0.749,10.145H38.51l-2.615-21.403L27.176,20.59z"/><path fill="#3dd9eb" d="M41.997,45H28.048v-3.996h9.59C40.045,41.004,41.997,42.793,41.997,45L41.997,45z"/><path fill="#00b3d7" d="M35.022,45h-8.718v-3.996h4.359C33.07,41.004,35.022,42.793,35.022,45L35.022,45z"/><path fill="#00b3d7" d="M26.304,41.077c0,1.427-0.46,2.796-1.308,3.923h3.998c0.522-1.227,0.797-2.558,0.797-3.923	c0-3.931-2.315-7.518-5.898-9.138l-1.437,3.178C24.795,36.173,26.304,38.513,26.304,41.077z"/><path fill="#3dd9eb" d="M42.869,17.974c0,3.852-5.738,6.974-9.59,6.974s-6.974-3.123-6.974-6.974S29.427,11,33.279,11	S42.869,14.123,42.869,17.974z"/><path fill="#3dd9eb" d="M16.994,20.02l15.256-1.744v-4.359H16.994c-1.685,0-3.051,1.366-3.051,3.051l0,0	C13.942,18.653,15.308,20.02,16.994,20.02z"/><circle cx="35.535" cy="16.484" r="1.5" fill="#c2ffff"/><path fill="#f5bc00" d="M32.125,11H25V6.5C25,5.672,24.328,5,23.5,5S22,5.672,22,6.5v4.418c-1.688-0.371-3-1.957-3-3.793V3.5	C19,2.672,18.328,2,17.5,2S16,2.672,16,3.5v3.625C16,10.916,19.028,14,22.75,14h9.375c0.828,0,1.5-0.672,1.5-1.5	S32.953,11,32.125,11z"/><path fill="#eb7900" d="M33.625,12.5c0-0.703-0.486-1.29-1.14-1.452c-2.043,0.232-3.816,1.345-4.933,2.952h4.573	C32.954,14,33.625,13.328,33.625,12.5z"/></svg>