<svg xmlns="http://www.w3.org/2000/svg"  viewBox="0 0 48 48" width="48px" height="48px" baseProfile="basic"><path fill="#3dd9eb" d="M25,45h-4c0-2.133,0.764-3.311,1.322-4.17C22.759,40.156,23,39.786,23,38.836	s-0.241-1.32-0.678-1.994C21.764,35.982,21,34.805,21,32.671c0-2.132,0.764-3.31,1.322-4.169C22.759,27.829,23,27.458,23,26.51	c0-0.95-0.241-1.321-0.678-1.995C21.764,23.654,21,22.477,21,20.343c0-2.134,0.764-3.313,1.322-4.174	C22.759,15.494,23,15.123,23,14.171c0-0.952-0.241-1.323-0.678-1.998C21.764,11.313,21,10.134,21,8h4	c0,0.951,0.241,1.323,0.678,1.998C26.236,10.858,27,12.037,27,14.171s-0.764,3.313-1.322,4.173C25.241,19.02,25,19.391,25,20.343	c0,0.95,0.241,1.321,0.678,1.995C26.236,23.198,27,24.376,27,26.51c0,2.133-0.764,3.311-1.323,4.17	C25.241,31.353,25,31.724,25,32.671c0,0.949,0.241,1.32,0.678,1.994C26.236,35.525,27,36.703,27,38.836s-0.764,3.311-1.322,4.171	C25.241,43.681,25,44.051,25,45z"/><path fill="#3dd9eb" d="M33.25,45h-4c0-2.133,0.764-3.311,1.322-4.17c0.437-0.673,0.678-1.044,0.678-1.993	s-0.241-1.32-0.678-1.994c-0.558-0.86-1.322-2.038-1.322-4.171c0-2.132,0.764-3.31,1.322-4.169c0.438-0.673,0.678-1.044,0.678-1.992	c0-0.95-0.241-1.321-0.678-1.995c-0.558-0.86-1.322-2.038-1.322-4.172c0-2.134,0.764-3.313,1.322-4.174	c0.437-0.675,0.678-1.046,0.678-1.998c0-0.952-0.241-1.323-0.678-1.998C30.014,11.313,29.25,10.134,29.25,8h4	c0,0.951,0.241,1.323,0.679,1.998c0.558,0.861,1.321,2.04,1.321,4.174s-0.764,3.313-1.321,4.173	c-0.438,0.675-0.679,1.046-0.679,1.998c0,0.95,0.241,1.321,0.678,1.995c0.559,0.86,1.322,2.038,1.322,4.172	c0,2.133-0.765,3.311-1.322,4.17c-0.438,0.673-0.678,1.044-0.678,1.992c0,0.949,0.241,1.32,0.678,1.994	c0.558,0.86,1.322,2.038,1.322,4.171s-0.765,3.311-1.322,4.171C33.49,43.681,33.25,44.051,33.25,45z"/><path fill="#3dd9eb" d="M16.75,44.875h-4c0-2.133,0.764-3.311,1.322-4.17c0.437-0.673,0.678-1.044,0.678-1.993	s-0.241-1.32-0.678-1.994c-0.558-0.86-1.322-2.038-1.322-4.171c0-2.132,0.764-3.31,1.322-4.169c0.437-0.673,0.678-1.044,0.678-1.992	c0-0.95-0.241-1.321-0.678-1.995c-0.558-0.86-1.322-2.038-1.322-4.172c0-2.134,0.764-3.313,1.322-4.174	c0.438-0.675,0.678-1.046,0.678-1.998c0-0.952-0.241-1.323-0.678-1.998c-0.558-0.861-1.322-2.039-1.322-4.173h4	c0,0.951,0.241,1.323,0.678,1.998c0.558,0.861,1.322,2.04,1.322,4.174s-0.764,3.313-1.322,4.173	c-0.438,0.675-0.678,1.046-0.678,1.998c0,0.95,0.241,1.321,0.678,1.995c0.558,0.86,1.322,2.038,1.322,4.172	c0,2.133-0.764,3.311-1.323,4.17c-0.437,0.673-0.677,1.044-0.677,1.992c0,0.949,0.241,1.32,0.678,1.994	c0.558,0.86,1.322,2.038,1.322,4.171s-0.764,3.311-1.322,4.171C16.991,43.556,16.75,43.926,16.75,44.875z"/><path fill="#f55376" d="M16,18.056C15.365,17.406,14.481,17,13.5,17c-1.933,0-3.5,1.567-3.5,3.5s1.567,3.5,3.5,3.5	c0.981,0,1.865-0.406,2.5-1.056c-0.617-0.631-1-1.492-1-2.444S15.383,18.687,16,18.056z"/><path fill="#f55376" d="M21,18.056C20.365,17.406,19.481,17,18.5,17s-1.865,0.406-2.5,1.056c0.617,0.631,1,1.492,1,2.444	s-0.383,1.813-1,2.444C16.635,23.594,17.519,24,18.5,24s1.865-0.406,2.5-1.056c-0.617-0.631-1-1.492-1-2.444	S20.383,18.687,21,18.056z"/><path fill="#f55376" d="M26,18.056C25.365,17.406,24.481,17,23.5,17s-1.865,0.406-2.5,1.056c0.617,0.631,1,1.492,1,2.444	s-0.383,1.813-1,2.444C21.635,23.594,22.519,24,23.5,24s1.865-0.406,2.5-1.056c-0.617-0.631-1-1.492-1-2.444	S25.383,18.687,26,18.056z"/><path fill="#f55376" d="M31,18.056C30.365,17.406,29.481,17,28.5,17s-1.865,0.406-2.5,1.056c0.617,0.631,1,1.492,1,2.444	s-0.383,1.813-1,2.444C26.635,23.594,27.519,24,28.5,24s1.865-0.406,2.5-1.056c-0.617-0.631-1-1.492-1-2.444	S30.383,18.687,31,18.056z"/><path fill="#f55376" d="M33.5,17c-0.981,0-1.865,0.406-2.5,1.056c0.617,0.631,1,1.492,1,2.444s-0.383,1.813-1,2.444	C31.635,23.594,32.519,24,33.5,24c1.933,0,3.5-1.567,3.5-3.5S35.433,17,33.5,17z"/><ellipse cx="16" cy="20.5" fill="#f55376" rx="1" ry="2.444"/><ellipse cx="21" cy="20.5" fill="#f55376" rx="1" ry="2.444"/><ellipse cx="26" cy="20.5" fill="#f55376" rx="1" ry="2.444"/><ellipse cx="31" cy="20.5" fill="#f55376" rx="1" ry="2.444"/><path fill="#6c19ff" d="M33.5,17c-0.981,0-19.019,0-20,0c-1.933,0-3.5,1.567-3.5,3.5s1.567,3.5,3.5,3.5	c0.981,0,1.865-0.406,2.5-1.056C16.635,23.594,17.519,24,18.5,24s1.865-0.406,2.5-1.056C21.635,23.594,22.519,24,23.5,24	s1.865-0.406,2.5-1.056C26.635,23.594,27.519,24,28.5,24s1.865-0.406,2.5-1.056C31.635,23.594,32.519,24,33.5,24	c1.933,0,3.5-1.567,3.5-3.5S35.433,17,33.5,17z"/><path fill="#f55376" d="M41.875,21c0-9.941-8.059-18-18-18s-18,8.059-18,18H41.875z"/><path fill="#eb0000" d="M37,20.5c0-1.933-1.567-3.5-3.5-3.5c-0.981,0-19.019,0-20,0c-1.933,0-3.5,1.567-3.5,3.5	c0,0.171,0.027,0.335,0.05,0.5H36.95C36.973,20.835,37,20.671,37,20.5z"/></svg>