<svg xmlns="http://www.w3.org/2000/svg"  viewBox="0 0 48 48" width="48px" height="48px"><circle cx="23" cy="21" r="9" fill="#f55376"/><circle cx="34.5" cy="21.5" r="5.5" fill="#f55376"/><path fill="#f55376" d="M0,36c3.702,0.702,7.384-1,8.438-6c1.034-4.903,2.199-13.383,10.548-17	c1.327,2.926,1.172,8.888-1.066,13.793c0,0-1.535,3.995-5.027,7.516C9.71,37.52,3.941,40.723,0,36z"/><path fill="#eb0000" d="M14,21c0,2.836,1.315,5.362,3.365,7.012c0.372-0.75,0.555-1.22,0.555-1.22	c2.239-4.904,2.394-10.867,1.066-13.793c-0.254,0.11-0.481,0.238-0.722,0.357C15.708,14.944,14,17.769,14,21z"/><path fill="#f55376" d="M34,18c0,0,3-4,3-9h5c0,0,1,15-6,18S34,18,34,18z"/><path fill="#f55376" d="M28.335,13.723L38,26c0,0-5,5-16,4C14.75,29.341,28.335,13.723,28.335,13.723z"/><path fill="none" stroke="#f55376" stroke-miterlimit="10" stroke-width="4" d="M24,45l-5-10c0,0,13-5,4-16"/><path fill="none" stroke="#f55376" stroke-miterlimit="10" stroke-width="4" d="M36,21c0,0,3,9-3,13"/><path fill="#f55376" d="M46.982,8.418l-4.109-2.348C41.646,5.369,40.256,5,38.842,5H37h-4c0,2.209,1.791,4,4,4h0.5l0.5,4	l8.067-0.807c0.857-0.086,1.636-0.651,1.861-1.482C48.176,9.794,47.766,8.866,46.982,8.418z"/></svg>