<svg xmlns="http://www.w3.org/2000/svg"  viewBox="0 0 48 48" width="48px" height="48px" baseProfile="basic"><polygon fill="#f55376" points="15.484,42.953 7.095,42.953 6.992,25.384 9.992,25.366 10.077,39.953 15.484,39.953"/><polygon fill="#f55376" points="31.023,42.953 23.79,42.953 16.984,34.925 16.984,27.449 19.984,27.449 19.984,33.825 25.179,39.953 31.023,39.953"/><rect width="3" height="23.54" x="39.52" y="19.734" fill="#f55376" transform="rotate(-14.35 41.025 31.504)"/><circle cx="35.359" cy="14.406" r="7.734" fill="#eb7900"/><path fill="#eb7900" d="M16.234,31c0.178,0,0.351-0.02,0.527-0.027c-4.112-0.135-7.828-1.814-10.584-4.49	C8.65,29.249,12.233,31,16.234,31z"/><path fill="#eb7900" d="M25.006,7.251c2.89,2.476,4.728,6.145,4.728,10.249c0,7.278-5.763,13.194-12.973,13.473	C16.938,30.979,17.111,31,17.289,31c8.815,0,15.961-7.146,15.961-15.961c0-2.641-0.652-5.125-1.787-7.319	c-0.845,0.317-1.757,0.499-2.713,0.499C27.391,8.219,26.116,7.866,25.006,7.251z"/><path fill="#eb7900" d="M29.734,17.5c0-4.104-1.838-7.773-4.728-10.249c-0.572-0.317-1.096-0.707-1.567-1.154	C21.353,4.776,18.887,4,16.234,4c-7.456,0-13.5,6.044-13.5,13.5c0,3.455,1.309,6.596,3.443,8.984	c2.756,2.676,6.472,4.355,10.584,4.49C23.971,30.694,29.734,24.778,29.734,17.5z"/><path fill="#eb7900" d="M29.734,17.5c0-4.104-1.838-7.773-4.728-10.249c-0.572-0.317-1.096-0.707-1.567-1.154	C21.353,4.776,18.887,4,16.234,4c-7.456,0-13.5,6.044-13.5,13.5c0,3.455,1.309,6.596,3.443,8.984	c2.756,2.676,6.472,4.355,10.584,4.49C23.971,30.694,29.734,24.778,29.734,17.5z"/><path fill="#eb7900" d="M23.439,6.097c0.471,0.446,0.995,0.836,1.567,1.154C24.514,6.829,23.989,6.445,23.439,6.097z"/><path fill="#eb7900" d="M23.439,6.097c0.471,0.446,0.995,0.836,1.567,1.154C24.514,6.829,23.989,6.445,23.439,6.097z"/><path fill="#eb7900" d="M23.439,6.097c0.471,0.446,0.995,0.836,1.567,1.154C24.514,6.829,23.989,6.445,23.439,6.097z"/><circle cx="36.461" cy="14.43" r="1.5" fill="#6c19ff"/></svg>