<svg xmlns="http://www.w3.org/2000/svg"  viewBox="0 0 48 48" width="48px" height="48px"><path fill="#f55376" d="M43.88,19.37c-0.02,0.38-0.06,0.75-0.11,1.13c-0.1,0.71-0.25,1.42-0.48,2.12 c-0.27,0.85-0.63,1.64-1.05,2.38c-0.78,1.38-1.79,2.56-2.97,3.52l-1.1,0.98l-2.56,2.25L33.06,34l-2.27,2l-2.83,2.5L24,41.98 l-3.96-3.48L17.21,36l-2.27-2l-2.55-2.25L9.83,29.5l-1.1-0.98C7.55,27.56,6.54,26.38,5.76,25c-0.42-0.74-0.78-1.53-1.05-2.38 c-0.23-0.7-0.38-1.41-0.48-2.12c-0.05-0.38-0.09-0.75-0.11-1.13c-0.02-0.25-0.02-0.5-0.02-0.75c0-0.89,0.09-1.76,0.28-2.62 c0.25-1.18,0.66-2.32,1.22-3.38c0.21-0.38,0.44-0.76,0.68-1.12C7.59,9.55,9.44,7.96,11.71,7c0.29-0.12,0.58-0.25,0.88-0.35 c2.94-0.99,5.98-0.78,8.64,0.35c0.98,0.42,1.92,0.96,2.77,1.63c0.85-0.67,1.79-1.21,2.77-1.63c2.66-1.13,5.7-1.34,8.64-0.35 C35.71,6.75,36,6.88,36.29,7c2.27,0.96,4.12,2.55,5.43,4.5c0.24,0.36,0.47,0.74,0.68,1.12c0.56,1.06,0.97,2.2,1.22,3.38 C43.86,17.1,43.95,18.23,43.88,19.37z"/><path fill="#f55376" d="M42.4,12.62H5.6c0.21-0.38,0.44-0.76,0.68-1.12C7.59,9.55,9.44,7.96,11.71,7 c0.29-0.12,0.58-0.25,0.88-0.35c2.94-0.99,5.98-0.78,8.64,0.35c0.98,0.42,1.92,0.96,2.77,1.63c0.85-0.67,1.79-1.21,2.77-1.63 c2.66-1.13,5.7-1.34,8.64-0.35C35.71,6.75,36,6.88,36.29,7c2.27,0.96,4.12,2.55,5.43,4.5C41.96,11.86,42.19,12.24,42.4,12.62z"/><path fill="#f5bc00" d="M28.82,19.37c0,0.002,0,0.003,0,0.005h-9.64H4.118c0.021,0.375,0.057,0.749,0.111,1.125 c0.103,0.71,0.253,1.42,0.481,2.125C4.983,23.469,5.339,24.26,5.758,25h14.499h7.483v0h14.5c0.42-0.74,0.78-1.53,1.05-2.38 c0.23-0.7,0.38-1.41,0.48-2.12c0.05-0.38,0.09-0.75,0.11-1.13H28.82z"/><path fill="#00b569" d="M27.743,25L27.743,25l-7.486,0H5.758c0.78,1.375,1.792,2.563,2.968,3.523L9.834,29.5l0,0 l2.552,2.25h9.36h4.504v0h9.36l2.56-2.25l1.1-0.98c1.18-0.96,2.19-2.14,2.97-3.52H27.743z"/><path fill="#6c19ff" d="M12.39,31.75L14.94,34l2.27,2h13.58l2.27-2l2.55-2.25H12.39z"/><polygon fill="#a64aff" points="30.79,36 27.96,38.5 24,41.98 20.04,38.5 17.21,36"/><path fill="#eb7900" d="M43.62,16c-0.25-1.18-0.66-2.32-1.22-3.38H27.33h-6.66H5.6c-0.56,1.06-0.97,2.2-1.22,3.38H4.376 c-0.233,1.096-0.322,2.229-0.258,3.375H19.18h9.641c0-0.002,0-0.003,0-0.005h15.06C43.95,18.23,43.86,17.1,43.62,16z"/></svg>