<svg xmlns="http://www.w3.org/2000/svg"  viewBox="0 0 48 48" width="48px" height="48px"><path fill="#eb7900" d="M33,27H15C8.373,27,3,21.627,3,15v0C3,8.373,8.373,3,15,3h18c6.627,0,12,5.373,12,12v0	C45,21.627,39.627,27,33,27z"/><path fill="#f5bc00" d="M11,15h13l-1.05-1.05C19.78,10.78,15.482,9,11,9h0c-1.657,0-3,1.343-3,3v0C8,13.657,9.343,15,11,15z"/><path fill="#f5bc00" d="M37,15H24l1.05-1.05C28.22,10.78,32.518,9,37,9h0c1.657,0,3,1.343,3,3v0C40,13.657,38.657,15,37,15z"/><path fill="#eb7900" d="M24,46V17.138L3,15C3,15,4,35.31,24,46z"/><path fill="#eb7900" d="M24,46V17.138L45,15C45,15,44,35.31,24,46z"/><path fill="#fadb00" d="M23.978,39L23.978,39c-4.09,0-7.558-3.164-8.137-7.425L11,9c4,0,21,0,26,0l-4.885,22.575	C31.536,35.836,28.068,39,23.978,39z"/><path fill="#f5bc00" d="M24,30.5c0,3.114-1.68,5.83-4.178,7.31c1.226,0.757,2.648,1.19,4.156,1.19	c1.518,0,2.949-0.437,4.179-1.203C25.671,36.314,24,33.605,24,30.5z"/><path fill="#f5bc00" d="M28,28c0,1.105-1.791,3-4,3s-4-1.895-4-3s1.791-2,4-2S28,26.895,28,28z"/><path fill="#eb7900" d="M17.652,21.013c1.583,0.49,3.263-0.396,3.753-1.979l-5.732-1.774	C15.183,18.843,16.069,20.523,17.652,21.013z"/><path fill="#eb7900" d="M30.291,21.013c-1.583,0.49-3.263-0.396-3.753-1.979l5.732-1.774	C32.759,18.843,31.873,20.523,30.291,21.013z"/><path fill="#f5bc00" d="M37,9c-5,0-22,0-26,0c4.482,0,8.78,1.78,11.95,4.95L24,15l1.05-1.05C28.22,10.78,32.518,9,37,9z"/></svg>