<svg xmlns="http://www.w3.org/2000/svg"  viewBox="0 0 48 48" width="48px" height="48px" baseProfile="basic"><path fill="#ffb300" d="M2.293,29.793c2.075,0.558,4.421,0.015,6.099-1.663c1.679-1.679,2.221-4.025,1.664-6.1L2.293,29.793z"/><path fill="#6c19ff" d="M19.736,14.375c0,0-3.619,2.996-4.164,3.75H15V26h-4.625H9.25H7.042c-1.104,0-2,0.896-2,2	s0.896,2,2,2H9.25h1.125h6.514C14.596,31.06,13,33.371,13,36.063c0,1.958,0.847,3.714,2.188,4.938h-1.161c-1.657,0-3,1.343-3,3h9	l0.113-0.17l0.034,0.168C28.514,44,34,42.903,34,33.028C34,24.874,27.724,14.375,19.736,14.375z"/><rect width="11.625" height="3.125" x="18.75" y="40.875" fill="#6c19ff"/><circle cx="10" cy="9" r="3" fill="#6c19ff"/><circle cx="23.125" cy="9" r="3" fill="#6c19ff"/><ellipse cx="16.5" cy="9.465" fill="#6c19ff" rx="5.417" ry="5.465"/><ellipse cx="16.5" cy="13.322" fill="#6c19ff" rx="6.5" ry="5.678"/><circle cx="14.667" cy="11.208" r="2.708" fill="#a64aff"/><circle cx="18.333" cy="11.208" r="2.708" fill="#a64aff"/><path fill="#a64aff" d="M16.5,10.726c-3.037,0-5.5,2.092-5.5,4.671c0,0.485,0.112,0.943,0.273,1.383	C12.479,18.128,14.369,19,16.5,19c2.131,0,4.021-0.872,5.227-2.221C21.889,16.339,22,15.881,22,15.397	C22,12.817,19.537,10.726,16.5,10.726z"/><circle cx="14" cy="11" r="1" fill="#2100c4"/><circle cx="19" cy="11" r="1" fill="#2100c4"/><path fill="#fff" d="M13,15c0.684,1.187,1.986,2,3.5,2s2.816-0.813,3.5-2H13z"/><rect width="4.875" height="3" x="26" y="41" fill="#6c19ff"/><path fill="#2100c4" d="M16,44l9-0.025V41h-6.025C17.332,41,16,42.357,16,44L16,44z"/><path fill="#2100c4" d="M24.875,43.5c-3.722,0-6.75-3.028-6.75-6.75S21.153,30,24.875,30v3c-2.068,0-3.75,1.683-3.75,3.75	s1.682,3.75,3.75,3.75V43.5z"/><path fill="#2100c4" d="M9.807,26H7.042c-1.104,0-2,0.896-2,2c0,0.689,0.349,1.297,0.88,1.657	c0.896-0.304,1.747-0.804,2.471-1.527C9.024,27.497,9.495,26.771,9.807,26z"/><path fill="#6c19ff" d="M36.027,17c0-1.654,1.346-3,3-3c1.292,0,2.397,0.818,2.815,1.984h3.076	C44.428,13.123,41.97,11,39.027,11c-3.309,0-6,2.691-6,6c0,2.248,1.291,4.316,2.658,6.506C37.314,26.118,39,28.818,39,32.25	c0,4.825-3.701,8.75-8.25,8.75v3C36.953,44,42,38.729,42,32.25c0-4.291-2.091-7.641-3.771-10.332	C37.047,20.024,36.027,18.389,36.027,17z"/></svg>