<svg xmlns="http://www.w3.org/2000/svg"  viewBox="0 0 48 48" width="48px" height="48px"><circle cx="32" cy="22" r="2" fill="#6c19ff"/><circle cx="16" cy="22" r="2" fill="#6c19ff"/><path fill="#f55376" d="M42.8,10.1c-3.2,0-5.8,2.6-5.8,5.8v10.5c0,2-1.6,3.6-3.5,3.6c0,0,0,0,0,0c-0.9,0-1.8-0.4-2.5-1	c-0.7-0.7-1-1.6-1-2.6V26c0-1.1,0.9-2,2-2V12c0-4.4-3.6-8-8-8s-8,3.6-8,8v12c1.1,0,2,0.9,2,2v0.4c0,1-0.4,1.9-1,2.6	c-0.7,0.7-1.5,1-2.5,1c0,0,0,0,0,0c-1.9,0-3.5-1.6-3.5-3.6V15.9c0-3.2-2.6-5.8-5.8-5.8H4v4h1.2c1,0,1.8,0.8,1.8,1.8v10.5	c0,4.2,3.4,7.6,7.5,7.6h0c1.6,0,3.2-0.5,4.5-1.5V38c0,1.1-0.9,2-2,2s-2-0.9-2-2v-1h-4v1c0,3.3,2.7,6,6,6s6-2.7,6-6v-7h2v7	c0,3.3,2.7,6,6,6s6-2.7,6-6v-1h-4v1c0,1.1-0.9,2-2,2s-2-0.9-2-2v-5.5c1.3,1,2.9,1.5,4.5,1.5h0c4.1,0,7.5-3.4,7.5-7.6V15.9	c0-1,0.8-1.8,1.8-1.8H44v-4H42.8z"/><path fill="#2100c4" d="M18,22c0-1.1-0.9-2-2-2v4C17.1,24,18,23.1,18,22z"/><path fill="#2100c4" d="M30,22c0,1.1,0.9,2,2,2v-4C30.9,20,30,20.9,30,22z"/><rect width="4" height="3" x="19" y="28" fill="#eb0000"/><rect width="4" height="3" x="25" y="28" fill="#eb0000"/><circle cx="24" cy="8" r="1" fill="#fa91ad"/><circle cx="21" cy="11" r="1" fill="#fa91ad"/><circle cx="27" cy="11" r="1" fill="#fa91ad"/></svg>