<svg xmlns="http://www.w3.org/2000/svg"  viewBox="0 0 48 48" width="48px" height="48px" baseProfile="basic"><path fill="#6c19ff" d="M12,37H7c-3.866,0-7,3.134-7,7l0,0h19l0,0C19,40.134,15.866,37,12,37z"/><path fill="#6c19ff" d="M32.5,4.003c-0.169-0.011-0.334,0.016-0.5,0.025V4.003C6,4.003,7,37,7,37s5,1,5,0c0-12,15-17,20-17	v-0.025C32.166,19.984,46,20,46,20S49.125,5.125,32.5,4.003z"/><rect width="5" height="7" x="7" y="37" fill="#2100c4"/><circle cx="39.5" cy="11.5" r="1.5" fill="#2100c4"/><path fill="#6c19ff" d="M16.625,13.375L7.875,7l0,0c3.56-1.899,7.785-2.098,11.507-0.543l3.993,1.668L16.625,13.375z"/><path fill="#ddbaff" d="M29.747,20.232C27.88,18.836,25.572,18,23.062,18c-6.179,0-11.187,5.009-11.187,11.188	c0,1.369,0.258,2.675,0.708,3.887C14.991,25.18,24.365,21.189,29.747,20.232z"/><path fill="#ddbaff" d="M39,15.375c-3.214,0-5.977,1.899-7.249,4.632C31.834,20.005,31.922,20,32,20v-0.025	C32.166,19.984,46,20,46,20s0.028-0.134,0.065-0.376C44.72,17.097,42.062,15.375,39,15.375z"/><path fill="#6c19ff" d="M25,18l-3.125,7.5h1.165c3.227,0,6.211-1.087,7.84-3.873L33,18H25z"/><path fill="#2100c4" d="M23.375,8.125L20.371,6.87c-2.326,1.329-4.252,3.04-5.84,4.979l2.094,1.526L23.375,8.125z"/></svg>