<svg xmlns="http://www.w3.org/2000/svg"  viewBox="0 0 48 48" width="48px" height="48px"><path fill="#eb7900" d="M20,44c0,0-8.958-2.987-11.645-13.794S19.104,16.381,20,44z"/><path fill="#eb7900" d="M28,44c0,0,8.958-2.987,11.645-13.794C42.333,19.398,28.896,16.381,28,44z"/><path fill="#f5bc00" d="M36.507,20.511C36.82,19.393,37,18.218,37,17c0-7.18-5.82-13-13-13S11,9.82,11,17	c0,1.123,0.157,2.206,0.425,3.246l3.744,16.478C15.974,40.869,19.62,45,24,45c4.418,0,8.085-4.186,8.847-8.383L36.507,20.511z"/><path fill="#f5bc00" d="M36.507,21.511C36.82,20.393,37,18.218,37,17c0-7.18-5.82-13-13-13S11,9.82,11,17	c0,1.123,0.157,3.206,0.425,4.246l3.744,16.478C15.974,41.869,19.62,45,24,45c4.418,0,8.085-3.186,8.847-7.383L36.507,21.511z"/><polygon fill="#f5bc00" points="24,16.176 9.212,9.838 10.788,6.162 24,11.824 37.212,6.162 38.788,9.838"/><path fill="#eb7900" d="M14.757,7.863c-0.961,0.972-1.76,2.099-2.378,3.333L24,16.176l11.62-4.98	c-0.618-1.234-1.417-2.361-2.378-3.333L24,11.824L14.757,7.863z"/><polygon fill="#eb7900" points="23.951,21 27.902,13 20,13"/><polygon fill="#fadb00" points="24,38 26,35 22,35"/><polygon fill="#fadb00" points="24,28 26,25 22,25"/><polygon fill="#fadb00" points="16,28 18,25 14,25"/><polygon fill="#fadb00" points="32,28 34,25 30,25"/><polygon fill="#fadb00" points="20,33 22,30 18,30"/><polygon fill="#fadb00" points="28,33 30,30 26,30"/><path fill="#eb7900" d="M14.192,13.973C14.074,14.294,14,14.637,14,15c0,1.657,1.343,3,3,3c1.179,0,2.189-0.686,2.679-1.676	L14.192,13.973z"/><path fill="#eb7900" d="M28.321,16.324C28.811,17.314,29.821,18,31,18c1.657,0,3-1.343,3-3c0-0.363-0.074-0.706-0.192-1.027	L28.321,16.324z"/></svg>