<svg xmlns="http://www.w3.org/2000/svg"  viewBox="0 0 48 48" width="48px" height="48px"><circle cx="12.5" cy="10.5" r="6.5" fill="#00b3d7"/><circle cx="35.5" cy="10.5" r="6.5" fill="#00b3d7"/><path fill="#3dd9eb" d="M5,29c0-9.941,8.507-22,19-22s19,12.059,19,22s-8.507,14-19,14S5,38.941,5,29z"/><path fill="#00b3d7" d="M31,40c0,3.314-3.134,6-7,6s-7-2.686-7-6s3.134-10,7-10S31,36.686,31,40z"/><path fill="#3dd9eb" d="M24,43c-2.253,0-4.404-0.2-6.409-0.592C18.674,44.522,21.134,46,24,46s5.326-1.478,6.409-3.592	C28.404,42.8,26.253,43,24,43z"/><path fill="#7debf5" d="M28,36c0,1.105-1.791,3-4,3s-4-1.895-4-3s1.791-2,4-2S28,34.895,28,36z"/><path fill="#00b3d7" d="M22,22.996C22,26.799,19.09,32,15.5,32S9,28.917,9,25.115s3-6.885,7-7.944	C19.483,16.248,22,19.194,22,22.996z"/><path fill="#00b3d7" d="M26,22.996C26,26.799,28.91,32,32.5,32s6.5-3.083,6.5-6.885s-3-6.885-7-7.944	C28.517,16.248,26,19.194,26,22.996z"/><circle cx="17.5" cy="22.5" r="1.5" fill="#7debf5"/><circle cx="30.5" cy="22.5" r="1.5" fill="#7debf5"/></svg>