<svg xmlns="http://www.w3.org/2000/svg"  viewBox="0 0 48 48" width="48px" height="48px" baseProfile="basic"><rect width="3" height="8.02" x="20" y="38.042" fill="#f5bc00"/><rect width="3" height="8.02" x="25" y="38" fill="#f5bc00"/><path fill="#3ddab4" d="M27.5,33.75c7.173,17.43,22.829,2.371,5.512-4.849c17.317,7.22,17.317-14.735,0-7.515	c17.317-7.22,1.894-22.744-5.279-5.314c7.173-17.43-14.639-17.43-7.466,0c-7.173-17.43-22.596-1.906-5.279,5.314	c-17.317-7.22-17.317,14.735,0,7.515c-17.317,7.22-1.661,22.279,5.512,4.849"/><path fill="#eb7900" d="M14.867,18.125l6.758-1.875V20L14.867,18.125z"/><path fill="#6c19ff" d="M22.625,15c-1.933,0-3.5,1.567-3.5,3.5s1.567,3.5,3.5,3.5l-1.406,5.402l5.836,0.668l-0.93-9.57	C25.875,16.5,24.558,15,22.625,15z"/><circle cx="24" cy="33.5" r="7" fill="#6c19ff"/><circle cx="22" cy="18" r="1" fill="#2100c4"/><path fill="#6c19ff" d="M20,38.042v1.198c0.875,0.611,1.896,1.022,3,1.18v-2.378H20z"/><path fill="#6c19ff" d="M25,38v2.42c1.104-0.158,2.125-0.57,3-1.18V38H25z"/><path fill="#6c19ff" d="M24,26.5c-0.918,0-1.792,0.182-2.595,0.503c-0.001,0.034-0.01,0.066-0.01,0.101	c0,0.111,0.02,0.216,0.033,0.323c0.162,1.37,1.314,2.437,2.727,2.437c1.196,0,2.204-0.765,2.587-1.829	c0.101-0.281,0.165-0.58,0.169-0.895C26.023,26.733,25.04,26.5,24,26.5z"/><path fill="#2100c4" d="M27.08,27.202c-0.149,0.795-0.119,1.554-0.119,2.392c0,3.027,0.911,5.867,2.623,8.095	C30.469,36.517,31,35.062,31,33.48C31,30.721,29.399,28.342,27.08,27.202z"/><path fill="#2100c4" d="M21.266,27.039c0.023,0.961-0.026,1.763-0.047,2.602c-0.078,3.152-1.091,5.82-2.803,8.048	C17.531,36.517,17,35.062,17,33.48c0-2.483,1.296-4.658,3.245-5.899C20.462,27.443,21.033,27.153,21.266,27.039z"/></svg>