<svg xmlns="http://www.w3.org/2000/svg"  viewBox="0 0 48 48" width="48px" height="48px" baseProfile="basic"><ellipse cx="14.284" cy="12.69" fill="#6c19ff" rx="6.09" ry="4.35" transform="rotate(-45.001 14.284 12.69)"/><ellipse cx="28.088" cy="11.683" fill="#6c19ff" rx="6.09" ry="4.35" transform="rotate(-45.001 28.088 11.683)"/><ellipse cx="36.88" cy="20.756" fill="#6c19ff" rx="6.09" ry="4.35" transform="rotate(-45.001 36.88 20.757)"/><ellipse cx="35.837" cy="33.68" fill="#6c19ff" rx="6.09" ry="4.35" transform="rotate(-45.001 35.837 33.68)"/><path fill="#6c19ff" d="M25.626,32.55l0.001-0.001l-0.987-0.987l0.805-0.805c2.162-2.162,2.423-5.653,0.285-7.94 c-2.245-2.249-5.796-2.345-8.017-0.124l-0.971,0.971L15.81,22.73l-0.002,0.002c-2.932-2.931-8.509-2.121-10.079,2.392 c-0.576,1.657-0.387,3.532,0.528,5.028c0.186,0.303,0.392,0.576,0.612,0.831L6.852,31l9.873,9.873l0.015-0.015 c0.353,0.412,0.77,0.789,1.255,1.116c1.684,1.132,3.886,1.304,5.746,0.492C27.824,40.684,28.449,35.375,25.626,32.55z"/></svg>