<svg xmlns="http://www.w3.org/2000/svg"  viewBox="0 0 48 48" width="48px" height="48px"><polygon fill="#eb7900" points="26.117,8.883 33,13 25,13"/><path fill="#f5bc00" d="M16.112,17.097C8.675,14.382,4.743,7.477,3.795,0c-9.374,16.624,0.299,31.529,10.823,30.981	C14.745,30.988,14.871,31,15,31c3.866,0,7-3.134,7-7C22,20.513,19.448,17.63,16.112,17.097z"/><path fill="#f5bc00" d="M44.205,0c-0.949,7.477-4.88,14.382-12.317,17.097C28.552,17.63,26,20.513,26,24c0,3.866,3.134,7,7,7	c0.129,0,0.255-0.012,0.383-0.019C43.906,31.529,53.579,16.624,44.205,0z"/><path fill="#f5bc00" d="M27,17.838V11c0-1.657-1.343-3-3-3s-3,1.343-3,3v6.838c-2.19,1.313-3.47,4-2.838,6.777l1.849,8.121	C20.447,34.648,22.099,36,24,36s3.553-1.352,3.989-3.264l1.849-8.121C30.47,21.838,29.19,19.152,27,17.838z"/><path fill="#f5bc00" d="M24,12h-2c-2.209,0-4-1.791-4-4v0h6V12z"/><path fill="#f5bc00" d="M24,31c-2.761,0-5,2.239-5,5c0,8.571,5,12,5,12s5-3.429,5-12C29,33.239,26.761,31,24,31z"/><path fill="#eb7900" d="M22,24c0-2.034-0.872-3.858-2.258-5.134c-1.381,1.448-2.078,3.565-1.58,5.75l1.119,4.914 C20.933,28.249,22,26.251,22,24z"/><path fill="#eb7900" d="M28.258,18.866C26.872,20.142,26,21.966,26,24c0,2.251,1.067,4.249,2.719,5.53l1.119-4.914 C30.335,22.431,29.639,20.314,28.258,18.866z"/><path fill="#eb7900" d="M24,36c1.832,0,3.421-1.261,3.925-3.063C27.01,31.766,25.601,31,24,31s-3.01,0.766-3.925,1.937 C20.579,34.739,22.168,36,24,36z"/></svg>