<svg xmlns="http://www.w3.org/2000/svg"  viewBox="0 0 48 48" width="48px" height="48px"><path fill="#f55376" d="M31,40H20c-7.732,0-14-6.268-14-14l0,0c0-7.732,6.268-14,14-14h11c7.732,0,14,6.268,14,14l0,0	C45,33.732,38.732,40,31,40z"/><polyline fill="#f55376" points="40,19 40,7.938 23.938,17.646"/><rect width="7" height="10" x="41" y="21" fill="#f55376"/><rect width="7" height="7" x="12" y="36" fill="#f55376"/><rect width="7" height="7" x="32" y="36" fill="#f55376"/><circle cx="38.5" cy="23.5" r="1.5" fill="#fa91ad"/><path fill="#f55376" d="M9,28H6.136C2.752,28,0,25.248,0,21.864V20h4v1.864C4,23.042,4.958,24,6.136,24H9V28z"/><path fill="#eb0000" d="M6.159,28H10v-4H6.159C6.065,24.655,6,25.319,6,26S6.065,27.345,6.159,28z"/></svg>