<svg xmlns="http://www.w3.org/2000/svg"  viewBox="0 0 48 48" width="48px" height="48px" baseProfile="basic"><rect width="3" height="8.375" x="19" y="35.625" fill="#f55376"/><rect width="3" height="8.375" x="26" y="35.625" fill="#f55376"/><path fill="#f55376" d="M41.5,9.928c0,0-2.536,3.532-5.717,3.571s-5.805-3.428-5.805-3.428S32.514,6.54,35.695,6.5	S41.5,9.928,41.5,9.928z"/><circle cx="30" cy="10" r="6" fill="#6c19ff"/><path fill="#3dd9eb" d="M35.5,21.375c-1.831-2.054-4.644-3.25-7.613-3.25h-1.762c-11.046,0-20,8.829-20,19.875l0,0	c0,0,19.928,0,21.762,0c5.523,0,10-4.352,10-9.875C37.887,25.571,37.076,23.142,35.5,21.375z"/><polygon fill="#6c19ff" points="36,22 24,22 24,10.5 34.5,10.625"/><circle cx="30.5" cy="9.875" r="3.5" fill="#c2ffff"/><path fill="#6c19ff" d="M28.997,18.187c-0.365-0.041-0.735-0.062-1.111-0.062h-1.762c-11.046,0-20,8.829-20,19.875	c1.315,0,3.294,0,6,0c3.918,0,8.239-1.154,11.493-4.25C28.116,29.471,28.951,22.468,28.997,18.187z"/><circle cx="30.5" cy="9.875" r="1.5" fill="#2100c4"/><path fill="#2100c4" d="M18.937,30.969c3.65-3.473,4.997-8.594,5.001-12.719c-8.975,0.977-16.145,7.893-17.543,16.735	c0.61,0,1.269,0,1.99,0C11.983,34.985,15.949,33.811,18.937,30.969z"/></svg>