<svg xmlns="http://www.w3.org/2000/svg"  viewBox="0 0 48 48" width="48px" height="48px" baseProfile="basic"><path fill="#f5bc00" d="M24.236,2.997h5.838c0,6.442-4.166,11.64-10.761,11.503c-1.652-0.034-3.221-1.42-3.296-3.047	C15.802,6.83,19.595,2.997,24.236,2.997z"/><path fill="#eb7900" d="M23.747,35.695c-1.944,3.048-5.956,4.074-9.131,2.333c-2.504-1.371-3.91-4.163-3.528-6.981H5.061	c-0.357,4.988,2.233,9.813,6.673,12.244c0.537,0.294,1.087,0.498,1.645,0.709h9.08c2.538-0.947,4.794-2.645,6.347-5.078	L23.747,35.695z"/><path fill="#f5bc00" d="M24.284,19.683L14.745,32.41c-3.258,3.556-3.606,8.706-0.859,11.59H37V19.497L24.284,19.683z"/><path fill="#f5bc00" d="M42.014,44h-16v-4.953h11C39.777,39.047,42.014,41.239,42.014,44L42.014,44z"/><path fill="#eb7900" d="M36,44H26v-4.953h5C33.761,39.047,36,41.239,36,44L36,44z"/><path fill="#eb7900" d="M26,39.547c0,1.637-0.528,3.16-1.5,4.453h4.586C29.685,42.592,30,41.113,30,39.547	c0-4.509-2.655-8.624-6.765-10.482l-1.648,3.645C24.268,33.922,26,36.606,26,39.547z"/><path fill="#f5bc00" d="M35.971,2.997h-5.818c0,6.442,4.152,11.649,10.725,11.512c1.646-0.034,3.046-1.452,3.122-3.079	C44.213,6.806,40.597,2.997,35.971,2.997z"/><path fill="#fadb00" d="M38,20.188H21.992v-9.953c0-3.997,3.584-7.238,8.004-7.238l0,0c4.42,0,8.004,3.241,8.004,7.238	V20.188z"/><path fill="#fadb00" d="M32.677,26.994h-5.407c-3.484,0-6.309-2.791-6.309-6.234l0,0c0-3.443,2.824-6.234,6.309-6.234h5.407	c3.484,0,6.309,2.791,6.309,6.234l0,0C38.985,24.203,36.161,26.994,32.677,26.994z"/><path fill="#eb7900" d="M32.654,19.181c0,0.676-1.164,1.835-2.599,1.835c-1.435,0-2.599-1.159-2.599-1.835	s1.164-1.223,2.599-1.223C31.491,17.958,32.654,18.505,32.654,19.181z"/><circle cx="27.51" cy="14.525" r="1.5" fill="#eb7900"/><circle cx="33.46" cy="14.525" r="1.5" fill="#eb7900"/><path fill="#f5bc00" d="M35.014,3.259v6.965c0,2.362,1.915,4.285,4.277,4.285l1.451-0.009l-0.156-6.207L35.014,3.259z"/><path fill="#f5bc00" d="M25.006,3.235V10.2c0,2.362-1.915,4.3-4.277,4.3h-1.55l0.254-6.23L25.006,3.235z"/><path fill="#eb7900" d="M35.014,4.601v5.623c0,1.909,1.259,3.512,2.986,4.064v-4.053C38,7.957,36.834,5.927,35.014,4.601z"/><path fill="#eb7900" d="M25.006,10.2V4.582c-1.835,1.326-3.014,3.364-3.014,5.654v4.051	C23.733,13.739,25.006,12.119,25.006,10.2z"/></svg>