<svg xmlns="http://www.w3.org/2000/svg"  viewBox="0 0 48 48" width="48px" height="48px" baseProfile="basic"><path fill="#2100c4" d="M47.004,4h-2.016v0.016c-2.851,0.165-5.121,2.53-5.121,5.421v1.617h0.531	C40.972,8.836,42.913,7.169,45.266,7h1.738V4z"/><path fill="#6c19ff" d="M29.39,32.581c-5.744,5.744-15.591,5.209-15.591,5.209s1.08-8.579,6.371-14.741	c5.697-6.634,11.562-8.927,14.429-6.059S35.134,26.837,29.39,32.581z"/><rect width="3" height="6.492" x="23.973" y="37.516" fill="#f5bc00" transform="rotate(-.619 25.548 40.879)"/><rect width="3" height="7.672" x="30.019" y="36.339" fill="#f5bc00" transform="matrix(1 -.0092 .0092 1 -.367 .29)"/><path fill="#6c19ff" d="M29.112,16.758c4.582-4.343,11.193,0.391,10.873,8.008c-0.198,4.718-1.552,7.034-4.923,10.229	c-7.569,7.175-21.567,4.882-25.234,1.021L29.112,16.758z"/><polygon fill="#6c19ff" points="1.063,43.984 6.234,43.984 23.859,32.672 20.516,22.656"/><polygon fill="#6c19ff" points="39.609,12.672 39.609,21.859 39.229,22.422 35.249,19.842 32.469,18.648 28.953,17.172 33.312,9.297"/><path fill="#6c19ff" d="M39.797,15.578c1.716-1.159,2.487-5.719,0.456-7.412c-0.211-0.176-0.423-0.293-0.647-0.41	c-0.555-0.291-1.048-0.597-1.674-0.706c-0.541-0.094-1.216-0.04-1.745,0.091c-0.973,0.242-1.808,0.811-2.438,1.585	c-0.247,0.304-0.46,0.612-0.649,0.954c-0.073,0.132-0.146,0.263-0.219,0.395c-0.031,0.057-0.09,0.128-0.106,0.192	c-0.058,0.234-0.096,0.475-0.137,0.721c-0.072,0.435-0.123,0.877-0.123,1.332c0,0.939,0.158,1.84,0.439,2.685	c1.023,3.074,3.608,5.408,6.92,5.799c0.051,0.198-0.07,0.035-0.07,0.035L39.797,15.578z"/><circle cx="39.945" cy="11.547" r="1" fill="#6c19ff"/><path fill="#2100c4" d="M35.132,35.029c1.963-1.861,3.297-3.86,4.143-6.022c-1.969-0.598-4.056-0.926-6.221-0.926	c-7.849,0-14.69,4.243-18.407,10.548C20.501,40.46,29.558,40.313,35.132,35.029z"/><rect width="2.273" height="10.242" x="37.707" y="14.066" fill="#6c19ff"/><path fill="#2100c4" d="M39.91,15.531c1.875-1.266,1.946-6.459,0.088-7.523c-2.955,0.704-5.139,3.333-5.139,6.504	c0,2.491,1.359,4.66,3.373,5.819c0.564,0.196,1.119,0.312,1.73,0.386L39.91,15.531z"/><path fill="#a64aff" d="M45.937,11.585c0,0-4.058-2.501-5.939-3.585v7.495C41.811,14.27,43.685,13.022,45.937,11.585z"/><rect width="2.461" height="6.422" x="37.5" y="12.953" fill="#2100c4"/></svg>