<svg xmlns="http://www.w3.org/2000/svg"  viewBox="0 0 48 48" width="48px" height="48px"><path fill="#f55376" d="M42,5c0,0-4,3-4,10L25,2h17V5z"/><circle cx="42" cy="4" r="3" fill="#c2ffff"/><path fill="#fac8d5" d="M24,40.281L24,40.281c-7.432,0-13.691-5.553-14.577-12.932l-0.721-4.196 C7.602,13.982,14.763,5.91,24,5.91h0c9.237,0,16.398,8.072,15.297,17.243l-0.721,4.196C37.691,34.728,31.432,40.281,24,40.281z"/><path fill="#fac8d5" d="M38.5,29h-29c-1.657,0-3-1.343-3-3s1.343-3,3-3h29c1.657,0,3,1.343,3,3S40.157,29,38.5,29z"/><path fill="#c2ffff" d="M9.61,30.271C10.961,37.086,16.948,42.09,24,42.09s13.039-5.004,14.39-11.819H9.61z"/><path fill="#f55376" d="M38,13.701H10v0C10,7.239,15.239,2,21.701,2h4.598C32.761,2,38,7.239,38,13.701L38,13.701z"/><path fill="#c2ffff" d="M24,46L24,46c-8.284,0-15-6.716-15-15v-2h30v2C39,39.284,32.284,46,24,46z"/><rect width="32" height="7" x="8" y="13" fill="#c2ffff"/><rect width="28" height="3" x="10" y="13" fill="#7debf5"/><circle cx="24" cy="35.5" r="9" fill="#c2ffff"/></svg>