<svg xmlns="http://www.w3.org/2000/svg"  viewBox="0 0 48 48" width="48px" height="48px" baseProfile="basic"><path fill="#2100c4" d="M42,34c0,0-1.506,0.08-2,0c-1.561-0.253-2-1.25-2-2v-2h-4v6h10C44,34.895,43.105,34,42,34z"/><path fill="#6c19ff" d="M39,11.875c-0.384,0.208,0.038,2.447,0.125,2.875l1.735,8.46c0.986,5.436-2.621,10.643-8.057,11.629	C32.215,34.946,31.618,35,31.02,35H8l-0.8-2L6,30l9.01-3.43l5.02-1.91l2.12-0.81l2.13-0.81c0.24-0.092,0.473-0.199,0.7-0.32	c1.383-0.745,2.42-2.001,2.89-3.5l4.38-12.345c1.375-2,2.924-2.142,4.75-2C41.75,5.245,41.1,9.475,39,11.875z"/><path fill="#6c19ff" d="M7.875,33.625C6.944,32.559,6.523,31.335,6,30c-1.867,0.659-3,1.625-3,3	c0,0.39,0.665,0.886,1.625,1.395C7.509,35.923,8.679,34.545,7.875,33.625z"/><circle cx="36.587" cy="8.712" r="4.712" fill="#6c19ff"/><path fill="#6c19ff" d="M36.587,4h7.74C44.699,4,45,4.301,45,4.673v0.506c0,0.416-0.091,0.824-0.263,1.196	C44.625,6.617,44.177,6.921,44,7.125l-3.625,4.25L36.587,4z"/><circle cx="38" cy="7" r="1" fill="#2100c4"/><path fill="#a64aff" d="M37.15,12.15c-0.645,0.488-0.906,1.333-0.65,2.1l1.36,6.96c0.986,5.436-2.621,10.643-8.057,11.629	C29.215,32.946,28.618,33,28.02,33H7.2L8,35h23.02c5.525-0.002,10.002-4.482,10.001-10.007c0-0.598-0.054-1.195-0.161-1.783	l-1.714-8.489c-0.084-0.429-0.396-1.221,0.104-1.971c1.25-1.125,5.5-6.375,5.5-6.375S37.933,11.678,37.15,12.15z"/><path fill="#2100c4" d="M16,42c0-4.971-4.843-9-9.63-9H3l0,0c0,4.971,4.843,9,9.63,9H16L16,42z"/><path fill="#6c19ff" d="M35,31.25c0-0.519,0.001-1.395,0.125-1.875l-0.25-0.125l-4.375,1.5v4.375L37,36l-0.021-0.068	C35.693,34.832,35,33.075,35,31.25z"/><path fill="#2100c4" d="M19,28.25c1.657,0,3-1.343,3-3c0-0.443-0.102-0.86-0.274-1.238L20.03,24.66l-3.881,1.477	C16.529,27.358,17.654,28.25,19,28.25z"/><path fill="#2100c4" d="M27,25c1.105,0,2-0.895,2-2c0-1.105-0.895-2-2-2c-0.023,0-0.044,0.006-0.066,0.007	c-0.508,0.681-1.145,1.261-1.902,1.679C25.015,22.788,25,22.892,25,23C25,24.105,25.895,25,27,25z"/><circle cx="25.5" cy="28.5" r="1.5" fill="#2100c4"/><path fill="#2100c4" d="M41,42c0-3.866-3.912-7-7.778-7H30.5l0,0c0,3.866,3.912,7,7.778,7H41L41,42z"/></svg>