<svg xmlns="http://www.w3.org/2000/svg"  viewBox="0 0 48 48" width="48px" height="48px" baseProfile="basic"><path fill="#ddbaff" d="M41.423,22.743c-4.548,7.875-12.548,13.25-22.673,13.25c-0.656,0-1.294-0.02-1.926-0.052	l-0.715,0.502c-0.019,0.016-0.038,0.032-0.057,0.049l-1.523,1.501l-1.247,1.87c0,0,0,0,0,0l0.112-0.155	c-0.031,0.055-0.052,0.115-0.083,0.171c2.736,1.35,5.812,2.114,9.071,2.114C33.769,41.992,43,32.762,43,21.375	c0-0.615,0-1.383,0-2.133C42.576,20.344,42.008,21.731,41.423,22.743z"/><path fill="#6c19ff" d="M46,6.242c0-1.653-0.596-3.165-1.582-4.339c-1.896,4.178-6.094,7.089-10.98,7.089	c-0.12,0-0.237-0.015-0.357-0.018c1.017,2.293,3.274,3.901,5.919,3.999v1.07c0,6.022-4.927,10.949-10.949,10.949L3.125,25	c-0.697,0-1.204,0.659-1.037,1.335c0.488,1.973,1.556,3.823,2.567,5.528c1.029,1.735,2.324,3.286,3.797,4.646l1.592-1.571	l1.777-1.306l1.899-0.575c1.921-0.259,3.86,0.325,5.314,1.577c-0.11,0.048-0.221,0.085-0.33,0.136	c-0.289,0.137-0.569,0.285-0.842,0.441l-1.131,0.794c0.69,0.057,1.385,0.096,2.09,0.096c10.988,0,20.458-7.049,24.18-16.727	c-0.004-0.041,0-0.125,0-0.125v-7.396C44.809,10.643,46,8.582,46,6.242z"/><path fill="#6c19ff" d="M19,24.016V27h8.016l0.008-5.5L26,21l1.024-0.538L27.016,16C22.589,16,19,19.589,19,24.016z"/><path fill="#6c19ff" d="M32.875,28.992l9.125,9h-3.261c-3.104,0-6.153-0.823-8.835-2.384l-4.029-2.616L32.875,28.992z"/><path fill="#2100c4" d="M27.016,27l0.003-2.021C26.878,24.984,26.739,25,26.598,25H19v2H27.016z"/><path fill="#2100c4" d="M32.875,28.992l-7,4l2.156,1.4c2.38-0.911,4.587-2.164,6.568-3.7L32.875,28.992z"/><circle cx="12.5" cy="28.5" r="1.5" fill="#2100c4"/><polygon fill="#6c19ff" points="40,16 35.875,16 39.187,19.313"/><path fill="none" d="M16.109,36.443c-0.019,0.016-0.038,0.032-0.057,0.049l0.064,0.02L16.109,36.443z"/><path fill="#3dd9eb" d="M14.561,37.996c-0.009,0.01-0.016,0.022-0.024,0.032l0.017,0.074l0.072-0.099L14.561,37.996z"/><path fill="#3dd9eb" d="M10.014,34.926L10,34.921l0.033-0.026l-0.005-0.02l-1.633,1.633l0.047,0.013	C8.786,36.141,9.374,35.515,10.014,34.926z"/><path fill="#3dd9eb" d="M10.193,34.765l-0.16,0.13l0.003,0.012C10.088,34.859,10.14,34.812,10.193,34.765z"/><path fill="#3dd9eb" d="M10.014,34.926c0.007-0.007,0.015-0.013,0.022-0.02l-0.003-0.012L10,34.921L10.014,34.926z"/><path fill="#fff" d="M10.193,34.765l0.916-0.741C10.811,34.235,10.499,34.492,10.193,34.765z"/><path fill="#3dd9eb" d="M14.528,37.993l-2.201-0.225l0.945,2.107l0.121-0.168c0.333-0.588,0.711-1.152,1.142-1.679	L14.528,37.993z"/><path fill="#3dd9eb" d="M16.051,36.491l-2.009-0.617l0.486,2.119l0.032,0.003C15.006,37.455,15.508,36.954,16.051,36.491z"/><path fill="#3dd9eb" d="M16.109,36.443c0.541-0.454,1.123-0.87,1.754-1.231l-1.969-0.884L16.109,36.443z"/><path fill="#3dd9eb" d="M10.044,34.938l-0.03-0.012c-0.64,0.588-1.228,1.214-1.573,1.594l2.184,0.585L10.044,34.938z"/><path fill="#3dd9eb" d="M10.044,34.938l2.111,0.812l-0.334-2.118L11.8,33.618c-0.02,0.009-0.041,0.014-0.061,0.023	c-0.196,0.093-0.41,0.226-0.63,0.383l-0.916,0.741c-0.053,0.047-0.105,0.094-0.157,0.142L10.044,34.938z"/><path fill="#fff" d="M10.014,34.926l0.03,0.012l-0.008-0.031C10.029,34.913,10.021,34.92,10.014,34.926z"/><path fill="#3dd9eb" d="M11.821,33.632l1.807,1.174l0.092-1.749c-0.643,0.087-1.283,0.27-1.903,0.554L11.821,33.632z"/></svg>