<svg xmlns="http://www.w3.org/2000/svg"  viewBox="0 0 48 48" width="48px" height="48px"><path fill="#6c19ff" d="M39,12c-3.314,0-6,2.686-6,6v1v9.658V33h-4H13h-3c-2.751,0.047-5,2.206-5,4.958	C5,40.742,7.258,43,10.042,43H34c6.075,0,11-4.925,11-11v-5v-9C45,14.686,42.314,12,39,12z"/><rect width="3" height="9" x="33" y="9" fill="#6c19ff"/><rect width="3" height="9" x="42" y="9" fill="#6c19ff"/><path fill="#f5bc00" d="M18.5,8L18.5,8C10.492,8,4,14.492,4,22.5v0C4,30.508,10.492,37,18.5,37H33V22.5	C33,14.492,26.508,8,18.5,8z"/><path fill="#eb7900" d="M18.5,37H33v-4h-4H13h-3c-0.44,0.007-0.859,0.086-1.266,0.195C11.312,35.551,14.733,37,18.5,37z"/><path fill="#eb7900" d="M22.194,22.895h-4c0,0.991-0.806,1.797-1.797,1.797c-1.515,0-2.747-1.232-2.747-2.746	c0-1.995,1.7-4.946,5.349-4.946c3.961,0,6.388,3.555,6.447,6.992c0.042,2.462-0.719,4.496-2.263,6.045	c-1.883,1.889-4.907,2.941-8.269,2.899l-0.019,1.394h9.324c0.644-0.441,1.252-0.923,1.797-1.469c2.304-2.312,3.49-5.402,3.429-8.937	C29.342,17.798,24.753,13,19,13c-5.775,0-9.349,4.644-9.349,8.946c0,3.72,3.026,6.746,6.747,6.746	C19.594,28.692,22.194,26.091,22.194,22.895z"/></svg>