<svg xmlns="http://www.w3.org/2000/svg"  viewBox="0 0 48 48" width="48px" height="48px"><path fill="#3dd9eb" d="M24,13c-8.837,0-16,7.163-16,16s7.163,16,16,16s16-7.163,16-16S32.837,13,24,13z"/><path fill="#eb7900" d="M21,32c0-1.656,1.344-3,3-3s11,3,11,3s-9.344,3-11,3S21,33.656,21,32z"/><path fill="#00b3d7" d="M21.246,41.969c-0.82-0.14-1.37-0.91-1.22-1.729l0,0c0.14-0.82,0.92-1.36,1.739-1.221h-0.01	c0.82,0.141,1.37,0.92,1.22,1.73l0,0c-0.119,0.729-0.76,1.25-1.47,1.25l0,0C21.416,41.999,21.336,41.989,21.246,41.969z M25.024,40.749c-0.149-0.811,0.4-1.59,1.21-1.73l0,0c0.82-0.149,1.6,0.4,1.74,1.21l0,0c0.15,0.82-0.4,1.601-1.211,1.74l0,0	c-0.09,0.021-0.18,0.021-0.27,0.021l0,0C25.785,41.989,25.145,41.479,25.024,40.749z M16.754,39.801	c-0.72-0.41-0.97-1.33-0.55-2.051l0,0c0.41-0.72,1.33-0.96,2.05-0.55l0,0c0.72,0.42,0.96,1.33,0.55,2.061l0,0	C18.525,39.74,18.014,40,17.494,40l0,0C17.245,40,16.985,39.941,16.754,39.801z M29.196,39.25c-0.41-0.72-0.17-1.63,0.549-2.05l0,0	c0.721-0.42,1.641-0.17,2.051,0.55l0,0c0.42,0.721,0.17,1.631-0.541,2.051l0,0c-0.24,0.13-0.5,0.199-0.76,0.199l0,0	C29.985,40,29.476,39.731,29.196,39.25z M13.35,36.47c-0.53-0.64-0.45-1.58,0.18-2.12l0,0c0.641-0.53,1.58-0.45,2.12,0.19l0,0	c0.53,0.63,0.45,1.569-0.18,2.109l0,0C15.18,36.879,14.84,37,14.5,37l0,0C14.07,37,13.65,36.82,13.35,36.47z M32.536,36.65	c-0.631-0.53-0.711-1.48-0.18-2.11l0,0c0.529-0.64,1.479-0.72,2.109-0.189l0,0c0.629,0.54,0.719,1.479,0.189,2.12l0,0	C34.355,36.821,33.933,37,33.504,37l0,0C33.165,37,32.815,36.89,32.536,36.65z"/><path fill="#2100c4" d="M18.5,24.999c-0.829,0-1.5,0.672-1.5,1.5s0.672,1.5,1.5,1.5s1.5-0.672,1.5-1.5	S19.329,24.999,18.5,24.999z M29.5,24.999c-0.828,0-1.5,0.672-1.5,1.5s0.672,1.5,1.5,1.5s1.5-0.672,1.5-1.5	S30.328,24.999,29.5,24.999z"/><rect width="24" height="16" x="12" y="3" fill="#6c19ff"/><rect width="34" height="5" x="7" y="18" fill="#6c19ff"/><path fill="#2100c4" d="M38.371,22c-2.598-5.323-8.048-9-14.371-9s-11.772,3.677-14.371,9H38.371z"/></svg>