<svg xmlns="http://www.w3.org/2000/svg"  viewBox="0 0 48 48" width="48px" height="48px" baseProfile="basic"><path fill="#6c19ff" d="M33.75,21.938c0-2.319,0.952-4.415,2.484-5.923c0.003-0.111,0.016-0.219,0.016-0.331	c0-5.905-4.557-10.691-10.178-10.691h-0.018c-5.621,0-10.178,4.787-10.178,10.691c0,5.905,4.557,10.691,10.178,10.691h0.018	c3.068,0,5.812-1.432,7.678-3.688V21.938z"/><path fill="#6c19ff" d="M27.023,42.023H5.773c0,0,2.227-14.898,3.102-20.773C10.167,12.578,15,5.016,24.75,5.016l2.188,0.047	L27.023,42.023z"/><circle cx="26.5" cy="11.5" r="2.5" fill="#f5bc00"/><circle cx="26.5" cy="11.5" r="1.25" fill="#eb7900"/><path fill="#ddbaff" d="M33.775,22.072c0-2.327,0.934-4.563,2.475-6.072h-7c-4.591,0-8.289,4.042-8.289,8.633l-0.023,17.391	h16.711c0,0-3.313-13.636-3.803-18.281C33.798,23.292,33.775,22.072,33.775,22.072z"/><path fill="#f5bc00" d="M33.98,9H36c3.161,0,5.385,2.398,5.385,5.559l-0.125,3.652L37.5,16h-6.875L33.98,9z"/><path fill="#eb7900" d="M33.992,9l-3.367,7h5.619c0-0.042,0.006-0.083,0.006-0.125C36.25,13.243,35.544,10.843,33.992,9z"/><polygon fill="#a64aff" points="32.531,39.007 35.078,36.007 29.984,36.007"/><polygon fill="#a64aff" points="24.471,39.007 27.017,36.007 21.924,36.007"/><polygon fill="#a64aff" points="28.58,32.015 31.127,29.015 26.033,29.015"/></svg>