<svg xmlns="http://www.w3.org/2000/svg"  viewBox="0 0 48 48" width="48px" height="48px"><circle cx="24" cy="18" r="14" fill="#3dd9eb"/><path fill="#00b3d7" d="M10,18c0,1.031,0.119,2.033,0.33,3H37.67c0.211-0.967,0.33-1.969,0.33-3s-0.119-2.033-0.33-3H10.33 C10.119,15.967,10,16.969,10,18z"/><path fill="#3dd9eb" d="M40,27.234V20H8v7.234C7.127,27.601,6,28.547,6,31c0,4,3,6,3,6s0,7,7,7c4,0,4.09-3,8-3s4,3,8,3 c7,0,7-7,7-7s3-2,3-6C42,28.547,40.873,27.601,40,27.234z"/><polygon fill="#2100c4" points="14.032,35.713 11.968,32.287 24.051,25.011 35.104,32.333 32.896,35.667 23.949,29.742"/><circle cx="17" cy="39" r="2" fill="#2100c4"/><circle cx="31" cy="39" r="2" fill="#2100c4"/><path fill="#2100c4" d="M24,35c-1.657,0-3,1.343-3,3v3.829C21.758,41.361,22.649,41,24,41s2.242,0.361,3,0.829V38 C27,36.343,25.657,35,24,35z"/><rect width="28" height="3" x="10" y="17" fill="#2100c4"/><path fill="#2100c4" d="M13,20c0,0,0,0.647,0,1c0,1.657,1.343,3,3,3c3,0,6-4,6-4H13z"/><path fill="#2100c4" d="M35,20c0,0,0,0.647,0,1c0,1.657-1.343,3-3,3c-3,0-6-4-6-4H35z"/></svg>