<svg xmlns="http://www.w3.org/2000/svg"  viewBox="0 0 48 48" width="48px" height="48px"><path fill="#eb7900" d="M41.854,29.265L41.854,29.265c-0.848,2.314-3.411,3.502-5.725,2.653l-5.813-2.131 c-2.314-0.848-3.502-3.411-2.653-5.725l0,0c0.848-2.314,3.411-3.502,5.725-2.653l5.813,2.131 C41.515,24.388,42.703,26.951,41.854,29.265z"/><path fill="#eb7900" d="M6.187,29.265L6.187,29.265c0.848,2.314,3.411,3.502,5.725,2.653l5.813-2.131 c2.314-0.848,3.502-3.411,2.653-5.725l0,0c-0.848-2.314-3.411-3.502-5.725-2.653L8.841,23.54 C6.527,24.388,5.339,26.951,6.187,29.265z"/><circle cx="32.309" cy="8.986" r="4.986" fill="#fadb00"/><circle cx="23.998" cy="30.595" r="13.297" fill="#f5bc00"/><circle cx="23.998" cy="16.189" r="11.081" fill="#fadb00"/><circle cx="14.025" cy="38.459" r="5.541" fill="#fadb00"/><circle cx="33.971" cy="38.459" r="5.541" fill="#fadb00"/><path fill="#f5bc00" d="M34.713,13.356c-0.878-3.329-3.265-6.045-6.387-7.37c-0.63,0.835-1.004,1.874-1.004,3.001 c0,2.754,2.233,4.986,4.986,4.986C33.18,13.973,34,13.749,34.713,13.356z"/><circle cx="20" cy="17" r="1" fill="#eb7900"/><circle cx="28" cy="17" r="1" fill="#eb7900"/><circle cx="15.687" cy="8.986" r="4.986" fill="#fadb00"/><path fill="#f5bc00" d="M13.283,13.356c0.713,0.393,1.532,0.617,2.404,0.617c2.754,0,4.986-2.233,4.986-4.986 c0-1.127-0.374-2.166-1.004-3.001C16.548,7.311,14.161,10.027,13.283,13.356z"/><path fill="#eb7900" d="M26.487,19.728c0,0.75-1.115,2.036-2.49,2.036c-1.375,0-2.49-1.286-2.49-2.036 c0-0.75,1.115-1.357,2.49-1.357C25.373,18.371,26.487,18.979,26.487,19.728z"/></svg>