<svg xmlns="http://www.w3.org/2000/svg"  viewBox="0 0 48 48" width="48px" height="48px" baseProfile="basic"><rect width="3" height="6.979" x="20" y="38.021" fill="#f5bc00"/><rect width="3" height="7.5" x="14" y="37.5" fill="#f5bc00"/><path fill="#f39c12" d="M25.207,11.982H38C37.201,14.881,34.638,17,31.604,17C28.571,17,26.006,14.881,25.207,11.982z"/><rect width="15.457" height="4.996" x="16" y="12.004" fill="#f39c12"/><path fill="#f1c40f" d="M19.75,12.021h22.305c-2.33-5.18-9.83-9-18.68-9c-0.56,0-1.5,0-3.5,0L19.75,12.021z"/><path fill="#6c19ff" d="M20,17.146V3.021c-8.625,0.104-15,9.183-15,18.25c0,10.179,8.502,19.625,18.681,19.625	c5.177,0,9.846-2.143,13.194-5.579L20,17.146z"/><path fill="#6c19ff" d="M23,20.396c-0.746,7.026,1.217,14.177,6.435,19.128c4.19,3.976,8.315,5.785,16.44,5.476L23,20.396z"/><path fill="#7debf5" d="M10.75,12.021c0,4.971,4.029,9,9,9c1.161,0,2.266-0.227,3.285-0.627L20,17V3.034	c-0.036-0.001-0.072-0.005-0.108-0.005c-0.479,0.004-0.952,0.035-1.416,0.093c-0.07,0.01-0.14,0.02-0.209,0.032	c-0.204,0.029-0.401,0.081-0.602,0.12C13.702,4.216,10.75,7.77,10.75,12.021z"/><circle cx="16" cy="10.021" r="2" fill="#2100c4"/><path fill="#2100c4" d="M23,20.396c-0.746,7.026,1.217,14.177,6.435,19.128c0.115,0.109,0.229,0.21,0.344,0.315	c2.707-0.954,5.13-2.509,7.093-4.523L23,20.396z"/></svg>