<svg xmlns="http://www.w3.org/2000/svg"  viewBox="0 0 48 48" width="48px" height="48px"><rect width="4" height="7" x="6" y="35" fill="#3ddab4"/><rect width="4" height="7" x="14" y="35" fill="#3ddab4"/><rect width="4" height="7" x="25" y="35" fill="#3ddab4"/><rect width="4" height="7" x="33" y="35" fill="#3ddab4"/><path fill="#f5bc00" d="M38,29H2v-2c0-9.941,8.059-18,18-18h0c9.941,0,18,8.059,18,18V29z"/><path fill="#3ddab4" d="M38,25v4H2c0,4.971,4.029,9,9,9h21.564C39.984,38,46,31.984,46,24.564V17C41.582,17,38,20.582,38,25z"/><circle cx="38.5" cy="17.5" r="7.5" fill="#3ddab4"/><circle cx="39.5" cy="15.5" r="1.5" fill="#00b569"/><rect width="36" height="4" x="2" y="26" fill="#00b569"/></svg>