<svg xmlns="http://www.w3.org/2000/svg"  viewBox="0 0 48 48" width="48px" height="48px"><path fill="#3dd9eb" d="M23.402,44.689L27,27c0.015,0,8-1.029,8-6c0-3.917-2.932-7.529-6.426-8.766L29,7	c0,0-17.061,10.835-24.254,28.997L23.402,44.689z"/><polygon fill="#f55376" points="30.447,14.979 44,5 35,20"/><circle cx="41.5" cy="29.5" r="5.5" fill="#3dd9eb"/><polygon fill="#3dd9eb" points="28.319,11.213 44.84,25.191 38.904,31.798 22,28"/><circle cx="29.5" cy="20.5" r="1.5" fill="#00b3d7"/><path fill="#f5bc00" d="M8.628,37.806c4.55-11.624,12.11-19.23,17.713-23.87l-5.206-6.031	C15.203,12.839,6.135,21.98,1.158,34.326L8.628,37.806z"/><path fill="#eb7900" d="M8.628,37.806c4.55-11.624,12.11-19.23,17.713-23.87l-2.587-2.997	C18.128,15.615,9.39,24.285,4.75,35.999L8.628,37.806z"/></svg>