<svg xmlns="http://www.w3.org/2000/svg"  viewBox="0 0 48 48" width="48px" height="48px"><path fill="#3ddab4" d="M33.4,33.4c-7,7-18.4,7-25.5,0l-3.5,3.5c9,9,23.6,9,32.5,0s9-23.6,0-32.5l-3.5,3.5 C40.4,14.9,40.4,26.3,33.4,33.4z"/><path fill="#f55376" d="M35.5,35.5c8.2-8.2,8.2-21.5,0-29.7L5.8,35.5C14,43.7,27.3,43.7,35.5,35.5z"/><path fill="#00b569" d="M35.5,35.5c8.2-8.2,8.2-21.5,0-29.7l-2.1,2.1c7,7,7,18.4,0,25.5s-18.4,7-25.5,0l-2.1,2.1 C14,43.7,27.3,43.7,35.5,35.5z"/><circle cx="17.1" cy="31.2" r="1" fill="#eb0000"/><polygon fill="#eb0000" points="15.7,29.8 16.1,31.5 17.4,30.3"/><circle cx="24.2" cy="24.2" r="1" fill="#eb0000"/><polygon fill="#eb0000" points="22.8,22.8 23.2,24.5 24.5,23.2"/><circle cx="31.2" cy="17.1" r="1" fill="#eb0000"/><polygon fill="#eb0000" points="29.8,15.7 30.3,17.4 31.5,16.1"/><g><circle cx="24.9" cy="32" r="1" fill="#eb0000"/><polygon fill="#eb0000" points="23.5,30.5 23.9,32.2 25.2,31"/></g><g><circle cx="32" cy="24.9" r="1" fill="#eb0000"/><polygon fill="#eb0000" points="30.5,23.5 31,25.2 32.2,23.9"/></g></svg>