<svg xmlns="http://www.w3.org/2000/svg"  viewBox="0 0 48 48" width="48px" height="48px"><path fill="#3dd9eb" d="M37,14h5c3.866,0,6-3.134,6-7v0H31v0C31,10.866,33.134,14,37,14z"/><circle cx="14.5" cy="20.5" r="14.5" fill="#3dd9eb"/><path fill="#3dd9eb" d="M37,14h5c0,22-26,30-38.436,16.106C10,24,25,16,25,16C27,24,37,27,37,14z"/><path fill="#3dd9eb" d="M27,35v3c0,4.418-3.582,8-8,8h0V35H27z"/><path fill="#00b3d7" d="M19,36.981c2.71,0.034,5.427-0.414,8-1.318V33h-8V36.981z"/><path fill="#3dd9eb" d="M16,33v3c0,4.418-3.582,8-8,8h0V33H16z"/><path fill="#00b3d7" d="M8,33.821c2.461,1.533,5.172,2.496,7.963,2.916C15.985,36.494,16,36.249,16,36v-3H8V33.821z"/><circle cx="18.5" cy="18.5" r="1.5" fill="#00b3d7"/><path fill="#00b3d7" d="M0.443,24H15v-3H0.025C0.061,22.032,0.203,23.034,0.443,24z"/><rect width="5" height="7" x="37" y="7" fill="#00b3d7"/></svg>