<svg xmlns="http://www.w3.org/2000/svg"  viewBox="0 0 48 48" width="48px" height="48px"><path fill="#f55376" d="M42,6v16H26V6H42z"/><path fill="#3dd9eb" d="M22,22V6H6v16H22z"/><path fill="#3ddab4" d="M42,26v16H26V26H42z"/><path fill="#6c19ff" d="M22,26H6v16h16V26z"/><polygon fill="#c1f5ea" points="34,37.4 40,32 28,32"/><polygon fill="#c1f5ea" points="34,37.4 38,40 38,40 34,28 30,40 30,40"/><rect width="8.5" height="8.5" x="9.8" y="29.8" fill="#ddbaff" transform="rotate(-45.001 14 34)"/><polygon fill="#c2ffff" points="19,17 19,11 14,8 9,11 9,17 14,20"/><polygon fill="#fac8d5" points="34,9 28,19 40,19"/></svg>