<svg xmlns="http://www.w3.org/2000/svg"  viewBox="0 0 48 48" width="48px" height="48px"><path fill="#6c19ff" d="M40,3H8v39h32V3z"/><path fill="#ddbaff" d="M34,6H14c0,1.657-1.343,3-3,3v27c1.657,0,3,1.343,3,3h20c0-1.657,1.343-3,3-3V9	C35.343,9,34,7.657,34,6z"/><rect width="8" height="13" x="20" y="33" fill="#f55376"/><rect width="8" height="9" x="20" y="33" fill="#eb0000"/><circle cx="24" cy="34.064" r="5" fill="#f5bc00"/><rect width="10" height="3" x="19" y="11" fill="#6c19ff"/><rect width="18" height="3" x="15" y="17" fill="#6c19ff"/><rect width="5" height="3" x="15" y="24" fill="#6c19ff"/><rect width="5" height="3" x="28" y="24" fill="#6c19ff"/></svg>