<svg xmlns="http://www.w3.org/2000/svg"  viewBox="0 0 48 48" width="48px" height="48px"><polygon fill="#3dd9eb" points="39,44 9,44 9,4 39,4 39,12.649"/><polygon fill="#6c19ff" points="39,11 39,4 32,4"/><polygon fill="#7debf5" points="32,11 39,11 32,4"/><path fill="#f55376" d="M20.856,18h-3.178L14,26.904V31h3v-3h5v3h3v-4.131L20.856,18z M20.816,25h-2.783l1.306-3.161	L20.816,25z"/><polygon fill="#f55376" points="17,28 17,27.5 18.033,25 14.787,25 14,26.904 14,28"/><polygon fill="#f55376" points="22,27.535 22,28 25,28 25,26.869 24.127,25 20.816,25"/><polygon fill="#f55376" points="34,24 32,24 32,22 29,22 29,24 27,24 27,27 29,27 29,29 32,29 32,27 34,27"/><g><rect width="3" height="3" x="29" y="24" fill="#eb0000"/></g></svg>