<svg xmlns="http://www.w3.org/2000/svg"  viewBox="0 0 48 48" width="48px" height="48px"><path fill="#6c19ff" d="M12.138,13.435L0,24h48L35.862,13.435C29.062,7.516,18.938,7.516,12.138,13.435z"/><path fill="#6c19ff" d="M12.138,34.565L0,24h48L35.862,34.565C29.062,40.484,18.938,40.484,12.138,34.565z"/><circle cx="24" cy="24" r="11" fill="#7debf5"/><circle cx="24" cy="24" r="6" fill="#3dd9eb"/><circle cx="28" cy="20" r="3" fill="#3dd9eb"/><path fill="#00b3d7" d="M25.59,18.213C25.219,18.712,25,19.331,25,20c0,1.657,1.343,3,3,3c0.669,0,1.288-0.219,1.787-0.59 C29.229,20.374,27.626,18.771,25.59,18.213z"/></svg>