<svg xmlns="http://www.w3.org/2000/svg"  viewBox="0 0 48 48" width="48px" height="48px"><path fill="#f55376" d="M44,24c0,11.045-8.955,20-20,20S4,35.045,4,24S12.955,4,24,4S44,12.955,44,24z"/><circle cx="24" cy="24" r="16" fill="#fa91ad"/><path fill="#f55376" d="M36,24c0,6.627-5.373,12-12,12s-12-5.373-12-12s5.373-12,12-12S36,17.373,36,24z"/><circle cx="24" cy="24" r="8" fill="#fa91ad"/><rect width="26.941" height="4" x="20.054" y="12.475" fill="#6c19ff" transform="rotate(-45.001 33.525 14.475)"/><path fill="#2100c4" d="M36.628,14.2l2.854-2.854c-0.846-1.034-1.794-1.982-2.828-2.828L33.8,11.371 C34.857,12.193,35.807,13.142,36.628,14.2z"/><path fill="#f55376" d="M28,24c0,2.209-1.791,4-4,4s-4-1.791-4-4s1.791-4,4-4S28,21.791,28,24z"/><path fill="#2100c4" d="M25.414,25.414l2.437-2.437c-0.367-1.382-1.447-2.461-2.828-2.828l-2.437,2.437L25.414,25.414z"/><path fill="#2100c4" d="M30.886,19.942l2.888-2.888c-0.779-1.094-1.734-2.049-2.828-2.828l-2.888,2.888 C29.224,17.803,30.197,18.776,30.886,19.942z"/><polygon fill="#6c19ff" points="40.929,0 34.878,6.051 36.999,11.001 41.949,13.122 48,7.071 43.05,4.95"/></svg>