<svg xmlns="http://www.w3.org/2000/svg"  viewBox="0 0 48 48" width="48px" height="48px"><path fill="#f55376" d="M32.979,28.042H15.021C11.696,28.042,9,25.346,9,22.021v0C9,18.696,11.696,16,15.021,16h17.958 C36.304,16,39,18.696,39,22.021v0C39,25.346,36.304,28.042,32.979,28.042z"/><path fill="#6c19ff" d="M43,43H5l1.624-6.287C7.416,31.696,11.741,28,16.821,28h14.357c5.08,0,9.405,3.696,10.197,8.713 L43,43z"/><polygon fill="#2100c4" points="24,43 18.532,28 29.468,28"/><path fill="#fac8d5" d="M34,22H14c-1.104,0-2-0.896-2-2s0.896-2,2-2h20c1.104,0,2,0.896,2,2S35.104,22,34,22z"/><path fill="#fac8d5" d="M24,30L24,30c-5.135,0-9.46-3.837-10.072-8.936l-0.498-4.15C12.669,10.577,17.617,5,24,5h0 c6.383,0,11.331,5.577,10.57,11.915l-0.498,4.15C33.46,26.163,29.135,30,24,30z"/><path fill="#f55376" d="M24,5c-3.049,0-5.771,1.273-7.7,3.294C18.965,13.984,25.438,18,33,18 c0.487,0,1.117,0.032,1.577,0.044l0.07-1.137C35.408,10.57,30.383,5,24,5z"/><rect width="2" height="9" x="38" y="5" fill="#f5bc00"/><rect width="20" height="8" x="14" y="4" fill="#6c19ff"/><rect width="32" height="3" x="8" y="4" fill="#6c19ff"/><rect width="20" height="3" x="14" y="4" fill="#2100c4"/></svg>