<svg xmlns="http://www.w3.org/2000/svg"  viewBox="0 0 48 48" width="48px" height="48px"><path fill="#f5bc00" d="M32,22V11H16v8H0v21h48V22H32z"/><rect width="16" height="3" y="16" fill="#3ddab4"/><rect width="16" height="3" x="16" y="8" fill="#f55376"/><rect width="16" height="3" x="32" y="19" fill="#3dd9eb"/><path fill="#eb7900" d="M13,34.998H4v-4.5c0-1.93,1.57-3.5,3.5-3.5h1c0.827,0,1.5-0.673,1.5-1.5s-0.673-1.5-1.5-1.5H5v-3 h3.5c2.481,0,4.5,2.019,4.5,4.5s-2.019,4.5-4.5,4.5h-1c-0.276,0-0.5,0.224-0.5,0.5v1.5h6V34.998z"/><rect width="3" height="14" x="23" y="13" fill="#eb7900"/><rect width="9" height="3" x="20" y="24" fill="#eb7900"/><rect width="4" height="3" x="20" y="15" fill="#eb7900"/><g><path fill="#eb7900" d="M41.002,38.004h-5v-3h5c0.551,0,1-0.449,1-1s-0.449-1-1-1h-5v-3.349l4.418-2.651h-4.418v-3h8v4.349 l-2.763,1.658c2.095,0.124,3.763,1.867,3.763,3.993C45.002,36.209,43.208,38.004,41.002,38.004z"/></g></svg>