<svg xmlns="http://www.w3.org/2000/svg"  viewBox="0 0 48 48" width="48px" height="48px"><polygon fill="#3ddab4" points="17,39.1 7,30.1 9,27.9 17,35 24.9,27.5 33.5,31 40,24.9 42,27.1 34.2,34.5 25.6,31"/><circle cx="8" cy="29" r="3" fill="#3ddab4"/><circle cx="41" cy="26" r="3" fill="#3ddab4"/><circle cx="25" cy="28" r="3" fill="#3ddab4"/><circle cx="34" cy="34" r="3" fill="#3ddab4"/><path fill="#00b569" d="M9,27.9l-2,2.2l1.9,1.7c1-0.3,1.8-1.2,2-2.2L9,27.9z"/><circle cx="17" cy="38" r="3" fill="#3ddab4"/><circle cx="27" cy="18" r="3" fill="#f55376"/><circle cx="37" cy="9" r="3" fill="#f55376"/><circle cx="16" cy="8" r="3" fill="#f55376"/><circle cx="7" cy="17" r="3" fill="#f55376"/><polygon fill="#f55376" points="27,18.9 16,11 8,18.1 6,15.9 16,7.1 27,15 36.1,7.8 37.9,10.2"/><path fill="#eb0000" d="M18.8,9.1l-2.8-2l-2.6,2.3c0.5,0.9,1.5,1.6,2.6,1.6C17.3,11,18.4,10.2,18.8,9.1z"/><path fill="#eb0000" d="M24.2,16.9l2.8,2l2.7-2.2c-0.5-1-1.5-1.7-2.7-1.7C25.7,15,24.7,15.8,24.2,16.9z"/><path fill="#eb0000" d="M36.1,7.8l-2,1.6c0.2,1.1,0.9,2,1.9,2.4l2-1.6L36.1,7.8z"/><path fill="#eb0000" d="M8,18.1l1.9-1.7c-0.2-1-1-1.9-2-2.2l-2,1.7L8,18.1z"/><path fill="#00b569" d="M27.9,28.7l-3-1.2l-2.4,2.3C23.1,30.5,24,31,25,31C26.4,31,27.6,30,27.9,28.7z"/><path fill="#00b569" d="M14.3,36.6l2.7,2.4l2.6-2.5C19.1,35.7,18.1,35,17,35C15.8,35,14.8,35.7,14.3,36.6z"/><path fill="#00b569" d="M40,24.9l-1.9,1.8c0.2,1,1,1.9,2.1,2.2l1.9-1.8L40,24.9z"/><path fill="#00b569" d="M31.1,33.2l3,1.2l2.3-2.2C35.9,31.5,35,31,34,31C32.6,31,31.5,32,31.1,33.2z"/></svg>