<svg xmlns="http://www.w3.org/2000/svg"  viewBox="0 0 48 48" width="48px" height="48px"><polygon fill="none" points="14.844,40.757 14.844,40.757 14.844,40.757"/><path fill="none" d="M14.183,40.352c0.036,0.029,0.073,0.056,0.111,0.082C14.257,40.408,14.219,40.381,14.183,40.352z"/><path fill="#3ddab4" d="M41.84,19.33C42.59,18.13,43,16.67,43,15c0-3.4-3-7-8-7c-4,0-6.8,2.5-7.1,2.9 c-1.2,1.1-1.2,3-0.1,4.2c1.1,1.2,3,1.3,4.2,0.1c0.1-0.1,1.3-1.2,3-1.2c1.6,0,2,0.8,2,1.3c0,0.7-0.2,1.7-3,1.7c-1.7,0-3,1.3-3,3 s1.3,3,3,3c3.7,0,4,1.1,4,1.5c0,0.4,0,1.5-3,1.5c-2.2,0-3.7-0.6-3.8-0.7c-0.105-0.049-0.213-0.075-0.32-0.11 c0.007,0.137,0.02,0.274,0.02,0.41c0,2.238-0.623,3.886-1.751,5.367C29.965,31.315,32.093,32,35,32c6.6,0,9-4,9-7.5 C44,23.21,43.69,21.02,41.84,19.33z"/><path fill="#ffc107" d="M14.183,40.352c-0.171-0.135-0.335-0.281-0.483-0.453c-0.24-0.28-0.42-0.6-0.54-0.92 c0.219,0.684,0.686,1.22,1.289,1.57c-0.054-0.034-0.103-0.078-0.155-0.115C14.257,40.408,14.22,40.381,14.183,40.352z"/><polygon fill="#ffc107" points="14.842,40.756 14.844,40.757 14.844,40.757"/><path fill="#ffc107" d="M14.1,35.7c0.12-0.1,0.24-0.2,0.36-0.3c-0.52,0.3-0.93,0.76-1.18,1.31 C13.46,36.33,13.74,35.98,14.1,35.7z"/><path fill="#f55376" d="M13.6,23.9c-1-1.3-0.8-3.2,0.5-4.2c0.131-0.131,0.814-0.643,1.9-1.178V11.5C16,9.6,14.4,8,12.5,8 c-0.53,0-1.04,0.13-1.5,0.36V8.3l-4.6,2.5C5.5,11.2,5,12.2,5,13.2C5,14.8,6.1,16,7.4,16H9v9H8c-1.7,0-3,1.3-3,3s1.3,3,3,3h9 c1.7,0,3-1.3,3-3s-1.3-3-3-3h-0.696C15.297,25.122,14.256,24.753,13.6,23.9z"/><path fill="#ffc107" d="M14.842,40.756c-0.14-0.056-0.266-0.132-0.393-0.206C14.575,40.629,14.707,40.697,14.842,40.756z"/><path fill="#ffc107" d="M15.35,40.93c-0.175-0.041-0.343-0.101-0.506-0.173C15.007,40.829,15.175,40.889,15.35,40.93z"/><path fill="#f5bc00" d="M27.3,26.8c0.558-1.395,2.153-2.083,3.58-1.61c-0.205-3.978-3.373-8.09-8.98-8.09 c-2.424,0-4.498,0.731-5.9,1.422V25h0.304c0.529-0.064,1.048-0.256,1.496-0.6c0,0,1.9-1.4,4.2-1.4c2.9,0,3,2.1,3,2.5 c0,1.6-0.5,2.1-4.8,5.4c-1.52,1.14-3.49,2.64-5.74,4.5c-0.12,0.1-0.24,0.2-0.36,0.3c-0.36,0.28-0.64,0.63-0.82,1.01 c-0.07,0.13-0.12,0.25-0.15,0.38c-0.06,0.19-0.1,0.39-0.12,0.6c-0.03,0.21-0.03,0.42,0,0.62c0,0.01,0,0.01,0,0.01 c0.01,0.09,0.03,0.17,0.04,0.25c0.01,0.05,0.02,0.11,0.04,0.16c0.02,0.08,0.05,0.16,0.07,0.25c0.12,0.32,0.3,0.64,0.54,0.92 c0.148,0.171,0.312,0.319,0.483,0.453c0.036,0.029,0.074,0.056,0.111,0.082c0.174,0.125,0.356,0.237,0.55,0.322c0,0,0,0,0,0 c0.163,0.072,0.33,0.132,0.506,0.173c0.01,0,0.02,0,0.03,0.01C15.58,40.98,15.79,41,16,41h13c1.7,0,3-1.3,3-3s-1.3-3-3-3h-4.25 c1.865-1.422,3.349-2.656,4.399-4.033c-0.166-0.071-0.298-0.133-0.349-0.167C27.3,30.1,26.6,28.3,27.3,26.8z"/><path fill="#00b569" d="M30.88,25.19c-1.428-0.472-3.022,0.215-3.58,1.61c-0.7,1.5,0,3.3,1.5,4 c0.051,0.034,0.182,0.096,0.349,0.167c1.128-1.481,1.751-3.128,1.751-5.367C30.9,25.464,30.887,25.326,30.88,25.19z"/><path fill="#ffc107" d="M14.183,40.352c-0.171-0.134-0.335-0.281-0.483-0.453C13.848,40.071,14.012,40.218,14.183,40.352z"/><path fill="#ffc107" d="M14.294,40.435c0.052,0.038,0.101,0.081,0.155,0.115c0.128,0.074,0.254,0.151,0.393,0.206 c0.001,0,0.001,0.001,0.002,0.001C14.65,40.672,14.469,40.56,14.294,40.435z"/><path fill="#eb0000" d="M16,18.522c-1.086,0.535-1.769,1.047-1.9,1.178c-1.3,1-1.5,2.9-0.5,4.2 c0.656,0.853,1.698,1.222,2.704,1.1H16V18.522z"/><path fill="#ffc107" d="M13,38c0,0.11,0,0.21,0.01,0.31c-0.03-0.2-0.03-0.41,0-0.62C13,37.79,13,37.89,13,38z"/></svg>