<svg xmlns="http://www.w3.org/2000/svg"  viewBox="0 0 48 48" width="48px" height="48px"><polygon fill="#f5bc00" points="37.2,14.2 34.7,11.7 37.5,9 40,11.5"/><rect width="3" height="6" x="37.7" y="6.7" fill="#f5bc00" transform="rotate(-45.009 39.195 9.736)"/><polygon fill="#f5bc00" points="10.8,14.2 13.3,11.7 10.5,9 8,11.5"/><rect width="6" height="3" x="5.8" y="8.2" fill="#f5bc00" transform="rotate(-45.001 8.803 9.735)"/><rect width="6" height="6" x="21" y="4" fill="#f5bc00"/><path fill="#6c19ff" d="M43,26c0,10.5-8.5,19-19,19C13.5,45,5,36.5,5,26C5,15.5,13.5,7,24,7C34.5,7,43,15.5,43,26"/><path fill="#2100c4" d="M27,7.2C26,7.1,25,7,24,7c-1,0-2,0.1-3,0.2V11h6V7.2z"/><rect width="14" height="4" x="21" y="19" fill="#ddbaff" transform="rotate(-45.001 28 21)"/><path fill="#f5bc00" d="M30,5H18V1h12V5z"/><path fill="#ddbaff" d="M27,25c0,1.7-1.3,3-3,3c-1.7,0-3-1.3-3-3c0-1.7,1.3-3,3-3C25.7,22,27,23.3,27,25"/></svg>