<svg width="241" height="241" viewBox="0 0 241 241" fill="none" xmlns="http://www.w3.org/2000/svg">
<path d="M120.242 240.462C53.9675 240.462 0.241666 186.736 0.241669 120.462C0.241672 54.1879 53.9675 0.462033 120.242 0.462036C186.516 0.462039 240.242 54.1879 240.242 120.462C240.242 186.736 186.516 240.462 120.242 240.462Z" fill="white"/>
<path d="M98.8463 114.069V154.505H56.0556V221.871C22.5086 200.594 0.241669 163.128 0.241669 120.462C0.241672 54.1879 53.9675 0.462033 120.242 0.462036C186.516 0.462039 240.242 54.1879 240.242 120.462C240.242 163.128 217.975 200.594 184.428 221.871V73.6327H141.637V114.069H98.8463Z" fill="#3B7FFF"/>
</svg>
